/* XPM */
static char *_391570b205c4b5ec2c248cd16506161[] = {
/* columns rows colors chars-per-pixel */
"48 48 256 2 ",
"   c #010000",
".  c #090500",
"X  c #0E0A01",
"o  c #100700",
"O  c #140B00",
"+  c #1D1D0A",
"@  c #251400",
"#  c #281400",
"$  c #251D00",
"%  c #3A1E00",
"&  c #2E2402",
"*  c #3C2200",
"=  c #392D01",
"-  c #372501",
";  c #442300",
":  c #4F2B00",
">  c #512D00",
",  c #473601",
"<  c #663D00",
"1  c #6F3C00",
"2  c #524101",
"3  c #644601",
"4  c #784000",
"5  c #765001",
"6  c #786100",
"7  c #892D00",
"8  c #923702",
"9  c #FF0202",
"0  c #FF0B0B",
"q  c #FF1C1C",
"w  c #FD1514",
"e  c #FF2B2B",
"r  c #FF2726",
"t  c #FF3231",
"y  c #884800",
"u  c #9F4600",
"i  c #934F07",
"p  c #9D5B00",
"a  c #8D4214",
"s  c #934C1F",
"d  c #A34200",
"f  c #AE4D00",
"g  c #B44F00",
"h  c #B14F08",
"j  c #B45501",
"k  c #BC5300",
"l  c #866702",
"z  c #9E6100",
"x  c #906B01",
"c  c #977F1B",
"v  c #A96500",
"b  c #BE6600",
"n  c #AA7300",
"m  c #BF7600",
"M  c #914B22",
"N  c #96542D",
"B  c #98542C",
"V  c #B3702C",
"C  c #A86339",
"Z  c #A8712E",
"A  c #D14600",
"S  c #DC4700",
"D  c #CD5600",
"F  c #D85908",
"G  c #D95F02",
"H  c #C96200",
"J  c #C16B00",
"K  c #CD6800",
"L  c #C06700",
"P  c #D26D00",
"I  c #DB6002",
"U  c #C27900",
"Y  c #D47100",
"T  c #DE7B01",
"R  c #D67F00",
"E  c #EC6400",
"W  c #F46C08",
"Q  c #E37E00",
"!  c #E67012",
"~  c #D5762C",
"^  c #C07C3F",
"/  c #C57536",
"(  c #A56F4F",
")  c #AD784D",
"_  c #FF4747",
"`  c #F34948",
"'  c #FF5353",
"]  c #FF5A5A",
"[  c #F85554",
"{  c #FF6A6A",
"}  c #FD6567",
"|  c #FB6E72",
" . c #FE7B7B",
".. c #B88C01",
"X. c #B28A02",
"o. c #B79500",
"O. c #C68D00",
"+. c #CB8505",
"@. c #D68B00",
"#. c #DA8000",
"$. c #C09501",
"%. c #C89901",
"&. c #DB9300",
"*. c #EA8500",
"=. c #EA8C02",
"-. c #F18600",
";. c #F98700",
":. c #F58E00",
">. c #FB8C00",
",. c #ED9300",
"<. c #EE9409",
"1. c #FC9500",
"2. c #F59B00",
"3. c #FC9A00",
"4. c #F39B09",
"5. c #DFAD01",
"6. c #DBB800",
"7. c #E3A300",
"8. c #F5A301",
"9. c #FCA500",
"0. c #F6AB00",
"q. c #FCAC00",
"w. c #F8AA0B",
"e. c #EBB100",
"r. c #F7B200",
"t. c #FDB400",
"y. c #F4BA00",
"u. c #FEBB00",
"i. c #FFBF0A",
"p. c #F8B10E",
"a. c #DB813A",
"s. c #DAB62D",
"d. c #DFC002",
"f. c #E3C500",
"g. c #F3C401",
"h. c #FEC401",
"j. c #F3CD01",
"k. c #FECB02",
"l. c #F6C60D",
"z. c #F7C90B",
"x. c #FBCA0B",
"c. c #FAC70B",
"v. c #FED401",
"b. c #FEDC03",
"n. c #FFD60B",
"m. c #F5D806",
"M. c #FAC210",
"N. c #F6C913",
"B. c #F4CF1D",
"V. c #F5C713",
"C. c #FEDC13",
"Z. c #FDDC1B",
"A. c #F9D317",
"S. c #FFE402",
"D. c #FEEB00",
"F. c #FFEB0A",
"G. c #F3E301",
"H. c #FFF302",
"J. c #FEFC02",
"K. c #FFF10E",
"L. c #FFE419",
"P. c #FFEE1C",
"I. c #FFF717",
"U. c #FFD123",
"Y. c #FBDA2C",
"T. c #FCDA26",
"R. c #F6DF3A",
"E. c #F3D733",
"W. c #FFE323",
"Q. c #FFE62C",
"!. c #FFF827",
"~. c #FFEC3C",
"^. c #FEE834",
"/. c #FFF932",
"(. c #FEF13E",
"). c #FFFB3D",
"_. c #BC9058",
"`. c #B7884A",
"'. c #B58B72",
"]. c #C48148",
"[. c #D58346",
"{. c #C99B69",
"}. c #CA9D70",
"|. c #DAA472",
" X c #E6A976",
".X c #F9DE41",
"XX c #F4DF49",
"oX c #F4DD45",
"OX c #FFEF44",
"+X c #FEE846",
"@X c #FFFB46",
"#X c #FFF449",
"$X c #FEFC49",
"%X c #FFF047",
"&X c #FFEF54",
"*X c #FCE95A",
"=X c #FFF555",
"-X c #FFFD55",
";X c #FDFD58",
":X c #F0DB7D",
">X c #FDEF6C",
",X c #FFF562",
"<X c #FFFC63",
"1X c #F7EB77",
"2X c #FEF671",
"3X c #FFFD73",
"4X c #FDF27E",
"5X c #BEA689",
"6X c #BEA488",
"7X c #FE8A8A",
"8X c #FE868A",
"9X c #F5989A",
"0X c #C9AC87",
"qX c #CCAD9C",
"wX c #CEB5A1",
"eX c #FEB6B5",
"rX c #FEBEBD",
"tX c #FAEF83",
"yX c #FFF685",
"uX c #FFFE83",
"iX c #FDF48E",
"pX c #FFFE94",
"aX c #FBF498",
"sX c #C3C3BB",
"dX c #F9C0BF",
"fX c #FFFDA5",
"gX c #FFFEA9",
"hX c #FDF7AB",
"jX c #FBF7B1",
"kX c #FCF9B9",
"lX c #C6CBC9",
"zX c #DCCFC6",
"xX c #DBD2C8",
"cX c #CDD6D9",
"vX c #CACCD8",
"bX c #E8C5C7",
"nX c #F4C4C5",
"mX c #E7D9DA",
"MX c #FED6D5",
"NX c #FDFCC4",
"BX c #FDFCCC",
"VX c #DADCE8",
"CX c #C9E5EB",
"ZX c #CDEBF2",
"AX c #D7E8F5",
"SX c #DFECF4",
"DX c #EDEAE9",
"FX c #FEEDED",
"GX c #F9E2E2",
"HX c #EFFCFA",
"JX c #E6F9FA",
"KX c #F5F4F1",
"LX c #FFF2F3",
"PX c #F5FDFD",
"IX c #FDFEFE",
"UX c None",
/* pixels */
"UXUXUXUXUXUXUXUXUXUXUXUXUXUXUXUXUXUXUXUXUXUXUXUXUXUXUXUXUXUXUXUXUXUXUXUXUXUXUXUXUXUXUXUXUXUXUXUX",
"UXUXUXUXUXUXUXUXUXUXUXUXUXUXUXUXUXUXUXUXUXUXUXUXUXUXUXUXUXUXUXUXUXUXUXUXUXUXUXUXUXUXUXUXUXUXUXUX",
"UXUXUXUXUXUXUXUXUXUXUXUXUXUXUXUXUXUXUXUXUXUXUXUXUXUXUXUXUXUXUXUXUXUXUXUXUXUXUXUXUXUXUXUXUXUXUXUX",
"UXUXUXUXUXUXUXUXUXUXUXUXUXUXUXUXUXUXUXUXUXUXUXUXUXUXUXUXUXUXUXUXUXUXUXUXUXUXUXUXUXUXUXUXUXUXUXUX",
"UXUXUXUXUXUXUXUXUXUXUXUXUXUXUXUXUXUXUXUXUXUXUXUXUXUXUXUXUXUXUXUXUXUXUXUXUXUXUXUXUXUXUXUXUXUXUXUX",
"UXUXUXUXUXUXUXUXUXUXUXUXUXUXUXUXUXUXUXUX                UXUXUXUXUXUXUXUXUXUXUXUXUXUXUXUXUXUXUXUX",
"UXUXUXUXUXUXUXUXUXUXUXUXUXUXUXUXUX      X $ = , , = $ .       UXUXUXUXUXUXUXUXUXUXUXUXUXUXUXUXUX",
"UXUXUXUXUXUXUXUXUXUXUXUXUXUX      & 6 o.6.j.m.Z.C.C.j.6.o.6 &       UXUXUXUXUXUXUXUXUXUXUXUXUXUX",
"UXUXUXUXUXUXUXUXUXUXUXUXUX  . 2 o.j.L.&XyXhXkXNXBXkXhXyX&XL.j.o.2 .   UXUXUXUXUXUXUXUXUXUXUXUXUX",
"UXUXUXUXUXUXUXUXUXUXUX    = o.b.Q.tXkXBXBXBXNXNXNXNXNXBXBXkXtX^.b.o.=     UXUXUXUXUXUXUXUXUXUXUX",
"UXUXUXUXUXUXUXUXUXUX    l g.C.1XjXkXgXfXgXgXgXgXgXgXgXfXfXgXjXjX1XC.g.l     UXUXUXUXUXUXUXUXUXUX",
"UXUXUXUXUXUXUXUXUX  X ..v.R.aXfXpXpXpXpXpXpXpXpXpXpXpXpXpXpXpXpXfXiXR.b.X.X   UXUXUXUXUXUXUXUXUX",
"UXUXUXUXUXUXUXUX  X $.v.XXiXyXuX4XuXuXuXuXuXuXuXuXuXuXuXuXuXuXuXyXyXiXXXv.$.X   UXUXUXUXUXUXUXUX",
"UXUXUXUXUXUXUX  . ..v.oX4X2X2X2X3X3X3X3X3X3X3X3X3X3X3X3X3X3X3X3X3X2X2X4XoXv....   UXUXUXUXUXUXUX",
"UXUXUXUXUXUXUX  x k.E.>X,X,X<X<X<X<X<X<X<X<X<X<X<X<X<X<X<X<X<X<X<X<X,X,X>XE.k.x   UXUXUXUXUXUXUX",
"UXUXUXUXUXUX  , h.B.*X&X&X=X=X-X-X;X-X-X-X-X-X-X-X-X-X-X-X-X;X;X-X=X=X=X&X*XB.h.,   UXUXUXUXUXUX",
"UXUXUXUXUX  . %.k.R.+X%X%X$X#XOX~.~.@X$X$X$X$X$X$X$X$X$X$X$X(.~.OX#X$X%X%X%XoXk.%..   UXUXUXUXUX",
"UXUXUXUXUX  3 h.B.+X~.(.~.U.4.Y H P <.U.).).).).).).).).U.<.P H Y 4.U.(.OX~..XB.h.3   UXUXUXUXUX",
"UXUXUXUXUX  O.h.Y.R.^.Q.w.k 8 s N a 7 g p././././././.p.g 7 a N M 8 k w.Q.~.^.Y.h.O.  UXUXUXUXUX",
"UXUXUXUX  - r.l.Y.Q.Q.8.d ( zXKXPXDXwXM d M.!.!.!.!.M.d M wXDXPXKXzX( d 8.W.Q.T.z.r.-   UXUXUXUX",
"UXUXUXUX  5 u.N.T.W.i.f '.IXIXIXIXIXIXDXB L P.!.!.P.J B DXIXIXIXIXIXIX'.f i.W.T.N.h.5   UXUXUXUX",
"UXUXUXUX  n u.N.Z.n.R C PXIXGXeXFXLXrXLXxXd z.I.I.z.u xXFXeXFXFXnXFXIXPXC R C.Z.N.u.n   UXUXUXUX",
"UXUXUXUX  +.u.M.C.x.k qXIXdXr ] { { ' t GX) 7.I.I.7.) nXr ] { { ' t MXIXqXj x.C.N.u.O.  UXUXUXUX",
"UXUXUXUX. &.u.c.n.y.j zXPX] t  .' 7XIX] 7X5X&.I.I.&.6X} t  .' 7XIX]  .IXzXj y.n.c.u.&.. UXUXUXUX",
"UXUXUXUXO &.t.c.n.y.j zXIX} 0 q w _ MXe 9X5X7.K.K.7.0X| 9 q w _ MXe 7XPXzXj y.n.c.u.&.X UXUXUXUX",
"UXUXUXUX. @.t.u.v.g.k wXPXnX9 9 0 9 9 q DX_.g.F.F.g._.bX9 9 0 9 9 q DXPXwXk g.v.u.t.@.o UXUXUXUX",
"UXUXUXUX  U q.t.k.b.K ].SXHX9X9 9 9 w nXvXR S.S.b.S.+.cX9X9 9 9 w dXHXSX].K b.k.y.q.U   UXUXUXUX",
"UXUXUXUX  z q.r.u.D.7.D 0XAXJXbX` [ mXZX^ g.S.v.v.S.g.^ ZXbX` [ mXJXAX0XD 7.D.h.t.q.z   UXUXUXUX",
"UXUXUXUX  < 9.0.t.b.D.T I }.lXCXCXCXsX/ e.S.k.u.h.k.S.e.^ sXCXZXCXlX{.G R D.v.u.r.9.<   UXUXUXUX",
"UXUXUXUX  @ ,.0.t.u.D.D.=.E ! a.[.~ T g.S.k.k.h.h.h.k.S.g.T ~ [.a.! E =.D.D.u.t.0.,.@   UXUXUXUX",
"UXUXUXUXUX  v 9.0.t.h.D.J.v.q.3.9.h.D.b.k.h.s.:X:Xs.k.k.b.D.g.9.3.q.v.J.D.h.u.0.9.v   UXUXUXUXUX",
"UXUXUXUXUX  * 1.8.q.t.u.v.H.J.J.H.S.k.h.k.x.+ c c + x.k.h.k.S.H.J.J.H.v.u.t.q.8.3.*   UXUXUXUXUX",
"UXUXUXUXUXUX  p 9.2.q.u.t.u.u.u.u.u.h.k.k.k.f.g.g.d.k.x.k.h.u.u.u.u.u.u.u.t.8.9.p   UXUXUXUXUXUX",
"UXUXUXUXUXUX  O #.3.8.q.t.u.u.u.u.h.u.q.q.9.q.q.q.q.q.q.q.u.h.u.u.u.u.t.t.8.2.R O   UXUXUXUXUXUX",
"UXUXUXUXUXUXUX  * :.2.8.q.t.t.t.u.u.9.Z {.|.|. X X X|.}.V 8.u.u.u.u.q.q.8.2.:.*   UXUXUXUXUXUXUX",
"UXUXUXUXUXUXUXUX  : :.3.8.q.q.q.q.t.u.Z vXKXIXLXIXIXKXVX`.t.t.u.q.q.q.8.3.>.>   UXUXUXUXUXUXUXUX",
"UXUXUXUXUXUXUXUXUX  ; *.1.2.9.q.q.q.u.5.i h F W W F h i 5.u.q.q.q.9.2.3.*.;   UXUXUXUXUXUXUXUXUX",
"UXUXUXUXUXUXUXUXUXUX  # J 1.1.2.9.9.9.h.f.m A A S A U f.h.9.9.8.2.1.1.J #   UXUXUXUXUXUXUXUXUXUX",
"UXUXUXUXUXUXUXUXUXUXUX    1 Q 1.3.2.2.2.u.S.G.m.j.G.S.u.2.3.2.3.1.Q 1 .   UXUXUXUXUXUXUXUXUXUXUX",
"UXUXUXUXUXUXUXUXUXUXUXUX    O 4 Y >.3.3.:.1.9.t.y.9.1.:.3.1.>.Y 4 O     UXUXUXUXUXUXUXUXUXUXUXUX",
"UXUXUXUXUXUXUXUXUXUXUXUXUXUX    . ; y b T -.;.>.>.;.-.T b y ; .     UXUXUXUXUXUXUXUXUXUXUXUXUXUX",
"UXUXUXUXUXUXUXUXUXUXUXUXUXUXUXUX        o # % ; ; % # o         UXUXUXUXUXUXUXUXUXUXUXUXUXUXUXUX",
"UXUXUXUXUXUXUXUXUXUXUXUXUXUXUXUXUXUXUXUX                UXUXUXUXUXUXUXUXUXUXUXUXUXUXUXUXUXUXUXUX",
"UXUXUXUXUXUXUXUXUXUXUXUXUXUXUXUXUXUXUXUXUXUXUXUXUXUXUXUXUXUXUXUXUXUXUXUXUXUXUXUXUXUXUXUXUXUXUXUX",
"UXUXUXUXUXUXUXUXUXUXUXUXUXUXUXUXUXUXUXUXUXUXUXUXUXUXUXUXUXUXUXUXUXUXUXUXUXUXUXUXUXUXUXUXUXUXUXUX",
"UXUXUXUXUXUXUXUXUXUXUXUXUXUXUXUXUXUXUXUXUXUXUXUXUXUXUXUXUXUXUXUXUXUXUXUXUXUXUXUXUXUXUXUXUXUXUXUX",
"UXUXUXUXUXUXUXUXUXUXUXUXUXUXUXUXUXUXUXUXUXUXUXUXUXUXUXUXUXUXUXUXUXUXUXUXUXUXUXUXUXUXUXUXUXUXUXUX",
"UXUXUXUXUXUXUXUXUXUXUXUXUXUXUXUXUXUXUXUXUXUXUXUXUXUXUXUXUXUXUXUXUXUXUXUXUXUXUXUXUXUXUXUXUXUXUXUX"
};
