/* XPM */
static char *_b0895c255b34b529c089d42127aadf6[] = {
/* columns rows colors chars-per-pixel */
"48 48 199 2 ",
"   c #010000",
".  c #090500",
"X  c #0E0A01",
"o  c #100700",
"O  c #140B00",
"+  c #1D1D0A",
"@  c #251400",
"#  c #281400",
"$  c #251D00",
"%  c #3A1E00",
"&  c #2E2402",
"*  c #372501",
"=  c #3C2200",
"-  c #392D01",
";  c #442300",
":  c #4F2B00",
">  c #512D00",
",  c #433500",
"<  c #4C3701",
"1  c #663D00",
"2  c #6F3C00",
"3  c #524101",
"4  c #644601",
"5  c #784000",
"6  c #765001",
"7  c #776000",
"8  c #786100",
"9  c #874800",
"0  c #884800",
"q  c #9D5B00",
"w  c #826502",
"e  c #8F6A01",
"r  c #9E6100",
"t  c #906B01",
"y  c #A96500",
"u  c #BE6700",
"i  c #AA7300",
"p  c #C15F00",
"a  c #C46100",
"s  c #C26B00",
"d  c #CD6800",
"f  c #D36E00",
"g  c #CC7700",
"h  c #C47C00",
"j  c #D37300",
"k  c #D17E00",
"l  c #DE7B00",
"z  c #E37E00",
"x  c #EF7F00",
"c  c #F07F00",
"v  c #97801B",
"b  c #B28A02",
"n  c #B88C01",
"m  c #B39300",
"M  c #BB9700",
"N  c #BB9800",
"B  c #C98500",
"V  c #C68D00",
"C  c #C98800",
"Z  c #D58203",
"A  c #DA8200",
"S  c #D58B00",
"D  c #DD8A00",
"F  c #C09501",
"G  c #CE9700",
"H  c #C29B01",
"J  c #CE9800",
"K  c #D79101",
"L  c #DB9201",
"P  c #E48600",
"I  c #EA8500",
"U  c #E68807",
"Y  c #EE8C00",
"T  c #F18500",
"R  c #F58C00",
"E  c #FB8D00",
"W  c #E39300",
"Q  c #ED9200",
"!  c #EF9C04",
"~  c #EB9009",
"^  c #F39200",
"/  c #FC9600",
"(  c #F59A00",
")  c #FA9A00",
"_  c #DAA700",
"`  c #DDAD00",
"'  c #DBB700",
"]  c #DDBA00",
"[  c #E4A501",
"{  c #EDA700",
"}  c #E4A905",
"|  c #EDAB00",
" . c #E7A508",
".. c #F5A300",
"X. c #FCA400",
"o. c #F6AB00",
"O. c #FCAD00",
"+. c #F3A209",
"@. c #F2A90C",
"#. c #E4B302",
"$. c #EBB402",
"%. c #E2B800",
"&. c #EBBC03",
"*. c #ECB708",
"=. c #EBB808",
"-. c #F5B401",
";. c #FEB400",
":. c #F0BE05",
">. c #FEBC00",
",. c #FAB708",
"<. c #F4B90F",
"1. c #FAB808",
"2. c #DAB62D",
"3. c #ECC301",
"4. c #F3C301",
"5. c #FEC401",
"6. c #F3CB02",
"7. c #FECC01",
"8. c #F3C30D",
"9. c #FAC70B",
"0. c #F9C90E",
"q. c #FED501",
"w. c #FEDC01",
"e. c #FFD70A",
"r. c #FCD90B",
"t. c #F5C713",
"y. c #F6C913",
"u. c #F4CF1D",
"i. c #FFDB13",
"p. c #F4D01A",
"a. c #FDDC1B",
"s. c #FEE400",
"d. c #FFEC00",
"f. c #FFEF0A",
"g. c #FFF400",
"h. c #FFFB00",
"j. c #FFF30E",
"k. c #FFE419",
"l. c #FFEA1A",
"z. c #FFF614",
"x. c #FFF91A",
"c. c #FFCD21",
"v. c #FDDB23",
"b. c #F9D72D",
"n. c #FBDA2C",
"m. c #F3D733",
"M. c #F6DF3A",
"N. c #FFE523",
"B. c #FFE62C",
"V. c #FFE82C",
"C. c #FEF722",
"Z. c #FFF629",
"A. c #FFFE2B",
"S. c #FEE333",
"D. c #FEEC34",
"F. c #FFEC3C",
"G. c #FFF932",
"H. c #FEF23E",
"J. c #FFFB3D",
"K. c #F4DD45",
"L. c #F9DE41",
"P. c #F4DF49",
"I. c #FDE542",
"U. c #FFEF47",
"Y. c #FEEB4B",
"T. c #FFF047",
"R. c #FFFB46",
"E. c #FFF349",
"W. c #FFFC4A",
"Q. c #FFEF54",
"!. c #FCE95A",
"~. c #FFF555",
"^. c #FFFD55",
"/. c #FDFD58",
"(. c #F0DB7D",
"). c #FDEF6C",
"_. c #FFF562",
"`. c #FFFC63",
"'. c #F7EB77",
"]. c #FEF671",
"[. c #FFFD73",
"{. c #FDF27E",
"}. c #FAEF83",
"|. c #FFF685",
" X c #FFFE83",
".X c #FDF48E",
"XX c #FAF294",
"oX c #FFFE94",
"OX c #FEF99F",
"+X c #FFFDA5",
"@X c #FDF7AB",
"#X c #FFFEA9",
"$X c #FBF7B1",
"%X c #FEFCB4",
"&X c #F9F6BA",
"*X c #FCF8BE",
"=X c #FDFCC4",
"-X c #FDFCCC",
";X c None",
/* pixels */
";X;X;X;X;X;X;X;X;X;X;X;X;X;X;X;X;X;X;X;X;X;X;X;X;X;X;X;X;X;X;X;X;X;X;X;X;X;X;X;X;X;X;X;X;X;X;X;X",
";X;X;X;X;X;X;X;X;X;X;X;X;X;X;X;X;X;X;X;X;X;X;X;X;X;X;X;X;X;X;X;X;X;X;X;X;X;X;X;X;X;X;X;X;X;X;X;X",
";X;X;X;X;X;X;X;X;X;X;X;X;X;X;X;X;X;X;X;X;X;X;X;X;X;X;X;X;X;X;X;X;X;X;X;X;X;X;X;X;X;X;X;X;X;X;X;X",
";X;X;X;X;X;X;X;X;X;X;X;X;X;X;X;X;X;X;X;X;X;X;X;X;X;X;X;X;X;X;X;X;X;X;X;X;X;X;X;X;X;X;X;X;X;X;X;X",
";X;X;X;X;X;X;X;X;X;X;X;X;X;X;X;X;X;X;X;X;X;X;X;X;X;X;X;X;X;X;X;X;X;X;X;X;X;X;X;X;X;X;X;X;X;X;X;X",
";X;X;X;X;X;X;X;X;X;X;X;X;X;X;X;X;X;X;X;X                ;X;X;X;X;X;X;X;X;X;X;X;X;X;X;X;X;X;X;X;X",
";X;X;X;X;X;X;X;X;X;X;X;X;X;X;X;X;X      X $ - , , - $ X       ;X;X;X;X;X;X;X;X;X;X;X;X;X;X;X;X;X",
";X;X;X;X;X;X;X;X;X;X;X;X;X;X      & 8 m ' 6.r.i.i.i.6.] m 8 &       ;X;X;X;X;X;X;X;X;X;X;X;X;X;X",
";X;X;X;X;X;X;X;X;X;X;X;X;X    3 N 6.k.Q.|.@X=X=X-X*X@X|.Q.k.6.N 3 .   ;X;X;X;X;X;X;X;X;X;X;X;X;X",
";X;X;X;X;X;X;X;X;X;X;X    - H q.B.}.&X-X-X=X=X=X=X=X=X-X-X*X}.V.w.N -     ;X;X;X;X;X;X;X;X;X;X;X",
";X;X;X;X;X;X;X;X;X;X    w 7.k.'.$X%X#X+X+X+X#X#X+X+X#X+X+X#X%X$X'.i.7.w     ;X;X;X;X;X;X;X;X;X;X",
";X;X;X;X;X;X;X;X;X  X n q.M.XXOXoXoXoXoXoXoXoXoXoXoXoXoXoXoXoXoXOXXXM.w.b X   ;X;X;X;X;X;X;X;X;X",
";X;X;X;X;X;X;X;X  X M q.P..X|.{.|. X X X X X X X X X X X X X X X|.|..XK.q.F X   ;X;X;X;X;X;X;X;X",
";X;X;X;X;X;X;X  . n q.K.{.].[.[.[.[.[.[.[.[.[.[.[.[.[.[.[.[.[.[.[.[.[.{.K.q.n .   ;X;X;X;X;X;X;X",
";X;X;X;X;X;X;X  t 7.m.)._._._._.`._.`.`.`.`.`.`.`.`.`.`.`._.`.`._._._._.).m.7.e   ;X;X;X;X;X;X;X",
";X;X;X;X;X;X  < 5.p.!.Q.Q.Q.^./././.^.^.^.^.^.^.^.^.^.^.^././././.~.~.~.Q.!.p.5.<   ;X;X;X;X;X;X",
";X;X;X;X;X  . G 7.L.Y.T.E.E.R.U.F.F.R.W.W.R.W.R.R.W.W.W.W.R.H.F.F.W.W.T.T.Y.K.7.J .   ;X;X;X;X;X",
";X;X;X;X;X  4 5.u.I.F.H.H.c.~ j d f U c.J.J.J.J.J.J.J.J.c.U d d f ~ c.H.T.F.I.u.5.4   ;X;X;X;X;X",
";X;X;X;X;X  V 5.b.S.D.V.+.a h _ %.` B u @.G.G.G.G.G.G.@.a B ` %._ h a +.V.D.B.b.7.V   ;X;X;X;X;X",
";X;X;X;X  * -.9.b.B.N.! u &.d.h.h.h.g.&.u <.A.Z.Z.A.<.u 3.g.h.h.h.g.&.u ! N.B.n.9.-.*   ;X;X;X;X",
";X;X;X;X  6 >.t.v.N.,.s 6.g.h.h.h.h.g.g.&.g l.C.C.l.g &.g.g.h.h.h.g.g.6.s ,.N.v.t.>.6   ;X;X;X;X",
";X;X;X;X  i >.y.a.e.A [ d.g.h.h.h.h.h.g.d.S 8.x.x.8.S d.g.h.h.h.h.h.g.d.[ A i.a.y.5.i   ;X;X;X;X",
";X;X;X;X  B >.y.i.5.k 7.d.g.g.h.h.g.g.g.d.[ } z.z.} } d.g.g.h.h.g.g.g.d.7.k 5.a.y.>.C   ;X;X;X;X",
";X;X;X;XX K ;.0.e.$.D w.d.d.g.g.g.g.g.d.s.| } j.j.[ | d.d.d.g.g.g.g.d.d.w.K $.e.9.>.K . ;X;X;X;X",
";X;X;X;XX L ;.9.e.| W s.d.d.d.d.d.d.d.d.s.{ } f.f.#.| d.d.d.d.d.d.g.d.d.w.L $.e.9.;.L o ;X;X;X;X",
";X;X;X;X. S -.>.q.4.Z =.6.q.w.s.s.s.s.w.9.L 6.f.f.4.L 0.w.s.s.s.s.w.q.6.=.Z 4.q.:.>.D . ;X;X;X;X",
";X;X;X;X  h O.>.7.q.D -.=.:.:.4.4.3.:.=. .K s.w.w.s.K  .=.=.4.4.4.4.:.:.,.A w.7.>.;.h   ;X;X;X;X",
";X;X;X;X  q O.-.>.d.[ ! q.w.w.w.w.w.q.7.Q 6.s.q.q.s.4.Q 7.q.w.w.w.w.q.q.! [ d.>.-.O.r   ;X;X;X;X",
";X;X;X;X  1 X.o.;.q.d.P ) 5.7.7.7.7.;.Y $.s.7.5.5.7.s.$.Y >.7.7.q.7.5.) A d.w.>.o.O.1   ;X;X;X;X",
";X;X;X;X  @ Q o.-.>.d.s.Q R ) X.X.^ Q 4.s.7.5.5.5.5.7.s.4.^ ^ X.X.) T Y d.d.>.;...Q #   ;X;X;X;X",
";X;X;X;X;X  y X.o.;.>.d.h.q.O.X.o.5.s.s.7.5.2.(.(.2.5.7.s.s.5.O...o.q.h.d.5.>.X.X.y   ;X;X;X;X;X",
";X;X;X;X;X  = / ..-.;.>.q.g.h.h.g.s.7.5.5.e.+ v v + 7.7.5.7.s.g.h.g.g.q.>.;.O.{ / =   ;X;X;X;X;X",
";X;X;X;X;X;X  q X.( ;.;.;.>.>.>.>.>.5.5.5.5.] 4.4.] 5.5.5.5.>.>.>.>.>.>.>.O...X.q   ;X;X;X;X;X;X",
";X;X;X;X;X;X  O A ) ..O.>.;.>.>.>.>.>.5.5.>.5.5.5.5.5.5.>.5.5.>.>.>.>.;.;...) A O   ;X;X;X;X;X;X",
";X;X;X;X;X;X;X  = R ( ..O.;.;.;.;.>.>.>.>.>.>.>.5.>.>.>.>.>.>.>.>.;.;.O...( R ;   ;X;X;X;X;X;X;X",
";X;X;X;X;X;X;X;X  : ^ / ( X.O.;.;.;.;.;.O.K k c x A K X.;.;.;.;.;.O.O.( / ^ :   ;X;X;X;X;X;X;X;X",
";X;X;X;X;X;X;X;X;X  ; I ) ( X.O.O.O.;.;.;.>.4.5.5.4.>.;.;.;.-.O.O.X.( ) I ;   ;X;X;X;X;X;X;X;X;X",
";X;X;X;X;X;X;X;X;X;X  # s / ^ ( X.O.O.O.O.O.;.;.;.;.O.O.O.O.X.X.( ^ / s #   ;X;X;X;X;X;X;X;X;X;X",
";X;X;X;X;X;X;X;X;X;X;X    2 z / / ^ ( X.X.X.X.X.X.X.X.X.X./ ( / / z 2 .   ;X;X;X;X;X;X;X;X;X;X;X",
";X;X;X;X;X;X;X;X;X;X;X;X.   O 5 j E / ) / ( / ( ( / ( ) / / E j 5 O     ;X;X;X;X;X;X;X;X;X;X;X;X",
";X;X;X;X;X;X;X;X;X;X;X;X;X;X    . ; 9 u l T E E E E T l u 9 ; .     ;X;X;X;X;X;X;X;X;X;X;X;X;X;X",
";X;X;X;X;X;X;X;X;X;X;X;X;X;X;X;X        X # % ; ; % # o         ;X;X;X;X;X;X;X;X;X;X;X;X;X;X;X;X",
";X;X;X;X;X;X;X;X;X;X;X;X;X;X;X;X;X;X;X;X                ;X;X;X;X;X;X;X;X;X;X;X;X;X;X;X;X;X;X;X;X",
";X;X;X;X;X;X;X;X;X;X;X;X;X;X;X;X;X;X;X;X;X;X;X;X;X;X;X;X;X;X;X;X;X;X;X;X;X;X;X;X;X;X;X;X;X;X;X;X",
";X;X;X;X;X;X;X;X;X;X;X;X;X;X;X;X;X;X;X;X;X;X;X;X;X;X;X;X;X;X;X;X;X;X;X;X;X;X;X;X;X;X;X;X;X;X;X;X",
";X;X;X;X;X;X;X;X;X;X;X;X;X;X;X;X;X;X;X;X;X;X;X;X;X;X;X;X;X;X;X;X;X;X;X;X;X;X;X;X;X;X;X;X;X;X;X;X",
";X;X;X;X;X;X;X;X;X;X;X;X;X;X;X;X;X;X;X;X;X;X;X;X;X;X;X;X;X;X;X;X;X;X;X;X;X;X;X;X;X;X;X;X;X;X;X;X",
";X;X;X;X;X;X;X;X;X;X;X;X;X;X;X;X;X;X;X;X;X;X;X;X;X;X;X;X;X;X;X;X;X;X;X;X;X;X;X;X;X;X;X;X;X;X;X;X"
};
