/* XPM */
static char *e8b5abf1a89348dcdf26574aec9e682d[] = {
/* columns rows colors chars-per-pixel */
"24 46 52 1 ",
"  c black",
". c #060000",
"X c #070000",
"o c #0D0000",
"O c #120000",
"+ c #150000",
"@ c #170000",
"# c #1C0000",
"$ c #210000",
"% c #270000",
"& c #2B0000",
"* c #2D0000",
"= c #330000",
"- c #3A0000",
"; c #3C0000",
": c #4F0000",
"> c #530000",
", c #5A0000",
"< c #620000",
"1 c #650000",
"2 c #690000",
"3 c #6C0000",
"4 c #730000",
"5 c #740000",
"6 c #780000",
"7 c #7D0000",
"8 c #810000",
"9 c #870000",
"0 c #8A0000",
"q c #8E0000",
"w c #910000",
"e c #940000",
"r c #990000",
"t c #A70000",
"y c #AB0000",
"u c #AF0000",
"i c #B30000",
"p c #B70000",
"a c #B90000",
"s c #BB0000",
"d c #C40000",
"f c #C80000",
"g c #CC0000",
"h c #D30000",
"j c #D70000",
"k c #E10000",
"l c #E60000",
"z c #EA0000",
"x c #F00000",
"c c #F40000",
"v c #FA0000",
"b c red",
/* pixels */
"$0bbbbbbbbbbbbbbbbbbbv0$",
"u=wbbbbbbbbbbbbbbbbbbr=u",
"ba*wvbbbbbbbbbbbbbbbe*pb",
"bbp&qvbbbbbbbbbbbbve&pbb",
"bbbp&0vbbbbbbbbbbbe*pbbb",
"bbbbi%9vbbbbbbbbbw&ibbbb",
"bbbbbi%1888888882&ibbbbb",
"bbbbbb4          4bbbbbb",
"bbbbbb7          7bbbbbb",
"bbbbbb7          7bbbbbb",
"bbbbbb8          7bbbbbb",
"bbbbbb7          7bbbbbb",
"bbbbbb7          7bbbbbb",
"bbbbbb7          7bbbbbb",
"bbbbbb7          7bbbbbb",
"bbbbbb7          7bbbbbb",
"bbbbbx>          >xbbbbb",
"bbbbx2.          .3xbbbb",
"bbbx4  O@@@@@@++O  4cbbb",
"bbc5 O2fjjjjjjjjg4+ 4xbb",
"bc5o>avbbbbbbbbbbbd>o4cb",
"x7-txbbbbbbbbbbbbbbct;7c",
"67lbbbbbbbbbbbbbbbbbbz86",
"5:pvbbbbbbbbbbbbbbbbva>4",
"c7+<hbbbbbbbbbbbbbbh2+6c",
"bc7.+8kbbbbbbbbbbl9$.7cb",
"bbc6. *0rrrrrrrr0= .6cbb",
"bbbc5.            .6cbbb",
"bbbbc6.          .6cbbbb",
"bbbbbc,          ,cbbbbb",
"bbbbbb8          8bbbbbb",
"bbbbbb7          7bbbbbb",
"bbbbbb7          8bbbbbb",
"bbbbbb7          7bbbbbb",
"bbbbbb8          7bbbbbb",
"bbbbbb7          7bbbbbb",
"bbbbbb7          7bbbbbb",
"bbbbbb7          8bbbbbb",
"bbbbbb3          3vbbbbb",
"bbbbbt$1888888882%tbbbbb",
"bbbby$0vbbbbbbbbvw%ybbbv",
"bbbu%0vbbbbbbbbbbbe&ubbb",
"bbi%qvbbbbbbbbbbbbve&ibb",
"bp&wvbbbbbbbbbbbbbbbe&pb",
"u=ebbbbbbbbbbbbbbbbbvr=u",
"#0vbbbbbbbbbbbbbbbbbbv0$"
};
