/* XPM */
static char *bd65b9da51a941fbfc9997b552ce8596[] = {
/* columns rows colors chars-per-pixel */
"24 46 46 1 ",
"  c black",
". c #040000",
"X c #080000",
"o c #0D0000",
"O c #120000",
"+ c #160000",
"@ c #190000",
"# c #1D0000",
"$ c #210000",
"% c #260000",
"& c #2A0000",
"* c #2F0000",
"= c #300000",
"- c #340000",
"; c #3A0000",
": c #3F0000",
"> c #410000",
", c #440000",
"< c #480000",
"1 c #4D0000",
"2 c #520000",
"3 c #550000",
"4 c #590000",
"5 c #5F0000",
"6 c #610000",
"7 c #650000",
"8 c #6B0000",
"9 c #720000",
"0 c #750000",
"q c #790000",
"w c #7F0000",
"e c #810000",
"r c #8B0000",
"t c #8C0000",
"y c #930000",
"u c #970000",
"i c #980000",
"p c #AC0000",
"a c #AE0000",
"s c #B30000",
"d c #B60000",
"f c #B80000",
"g c #F00000",
"h c #F50000",
"j c #FB0000",
"k c #FC0000",
/* pixels */
"Orkkkkkkkkkkkkkkkkkkkkt$",
">#ujkkkkkkkkkkkkkkkkki-a",
"6,@ykkkkkkkkkkkkkkkki*fk",
"66,@ykkkkkkkkkkkkkki*fkk",
"566>+tjkkkkkkkkkkku&dkkk",
"6666,+rjkkkkkkkkku*dkkkk",
"56656>+7eeeeeeee8&skkkkk",
"655666&          0kkkkkk",
"565656*          wkkkkkk",
"656566*          ekkkkkk",
"565656*          wkkkkkk",
"656566*          wkkkkkk",
"565656*          wkkkkkk",
"656566*          wkkkkkk",
"565656*          ekkkkkk",
"656566=          ekkkkkk",
"566664$          2gkkkkk",
"65665&           .8gkkkk",
"5664&  .XXXXXX.XX .9hkkk",
"565* .&<222222221&X.0hkk",
"65&.@<566666666665<#X0hk",
"4=+:5666666665566665>@wh",
"*=46655656565656565564-9",
"*#,565656565656665665,$0",
"5*.%1666666666666662%owj",
"64* X=366666666664=o.qhk",
"565*. O-;;;;;;;;-+ .qhkk",
"6555*             Xqhkkk",
"65665&           .qhkkkk",
"565555%          4hkkkkk",
"655666*          ekkkkkk",
"566566*          ekkkkkk",
"656556*          wkkkkkk",
"565666*          wkkkkkk",
"656556*          wkkkkkk",
"565666*          ekkkkkk",
"656566*          wkkkkkk",
"565656=          ekkkkkk",
"656566&          8kkkkkk",
"56566:X&==-=====&#akkkkk",
"5666>o=5766666666-#akkkk",
"656>o-666665565656-$skkk",
"56>O-66556566565656-$skk",
"6,O-5656656556565666-%fk",
">O;565656565656565655;&a",
"o-65565656565656565656=@"
};
