/* XPM */
static char *_c7fc547698a463d814034ec1d170c9f[] = {
/* columns rows colors chars-per-pixel */
"24 46 57 1 ",
"  c black",
". c #060000",
"X c #0B0000",
"o c #130000",
"O c #140000",
"+ c #190000",
"@ c #1B0000",
"# c #210000",
"$ c #270000",
"% c #2B0000",
"& c #2D0000",
"* c #330000",
"= c #360000",
"- c #3A0000",
"; c #3E0000",
": c #420000",
"> c #440000",
", c #4A0000",
"< c #4E0000",
"1 c #530000",
"2 c #5B0000",
"3 c #5D0000",
"4 c #610000",
"5 c #650000",
"6 c #6B0000",
"7 c #6F0000",
"8 c #730000",
"9 c #760000",
"0 c #7A0000",
"q c #7D0000",
"w c #810000",
"e c #870000",
"r c #8A0000",
"t c #8E0000",
"y c #910000",
"u c #950000",
"i c #9A0000",
"p c #A30000",
"a c #A70000",
"s c #AB0000",
"d c #AF0000",
"f c #B30000",
"g c #B70000",
"h c #B90000",
"j c #BD0000",
"k c #C40000",
"l c #CC0000",
"z c #D30000",
"x c #D70000",
"c c #E10000",
"v c #E60000",
"b c #EA0000",
"n c #F00000",
"m c #F30000",
"M c #F50000",
"N c #FA0000",
"B c red",
/* pixels */
"#rBBBBBBBBBBBBBBBBBBBNtO",
"d*yBBBBBBBBBBBBBBBBBBi+:",
"Bh&yNBBBBBBBBBBBBBBBi+>4",
"BBg%tNBBBBBBBBBBBBNu+>43",
"BBBg%rNBBBBBBBBBBBu+>444",
"BBBBf$eNBBBBBBBBNu+:4443",
"BBBBBf$5wwwwwwww6+:43434",
"BBBBBB8          %444444",
"BBBBBBq          *444343",
"BBBBBBq          &444444",
"BBBBBBw          &434344",
"BBBBBBq          *444434",
"BBBBBBq          *434444",
"BBBBBBq          &443434",
"BBBBBBq          &444443",
"BBBBBBq          *433444",
"BBBBBm1          #343444",
"BBBBm6.           %34443",
"BBBm7  o+O+OO+++o  %3434",
"BBM8 o5lxxxxxxzzl8O %344",
"BM9X<jNBBBBBBBBBBBk1X%34",
"m0-pmBBBBBBBBBBBBBBma-&3",
"0qbBBBBBBBBBBBBBBBBBBbq*",
"&,gNBBBBBBBBBBBBBBBBNh18",
"3&o4zBBBBBBBBBBBBBBz5+0M",
"43& +qcBBBBBBBBBBvr+.0MB",
"443&  &riiiiiiiir* .0MBB",
"4343&             .0MBBB",
"44443&.          .9MBBBB",
"343443#          3mBBBBB",
"443444*          qBBBBBB",
"344444&          qBBBBBB",
"434434*          wBBBBBB",
"443444&          qBBBBBB",
"444444&          qBBBBBB",
"343434*          qBBBBBB",
"444344&          qBBBBBB",
"344444*          qBBBBBB",
"434344%          7NBBBBB",
"44444;o4wwwwwwww6$aBBBBB",
"3444;orNBBBBBBBBNy$sBBBN",
"444:OtNBBBBBBBBBBBu$dBBB",
"44>OyNBBBBBBBBBBBBNu%fBB",
"4>OuNBBBBBBBBBBBBBBBu&gB",
":+iNBBBBBBBBBBBBBBBBNi*f",
"orBBBBBBBBBBBBBBBBBBBNt+"
};
