/* XPM */
static char *_be0664173c947d9d672ba9384c994fa[] = {
/* columns rows colors chars-per-pixel */
"24 46 48 1 ",
"  c black",
". c #060000",
"X c #0A0000",
"o c #0D0000",
"O c #120000",
"+ c #150000",
"@ c #190000",
"# c #1F0000",
"$ c #210000",
"% c #260000",
"& c #2B0000",
"* c #2D0000",
"= c #330000",
"- c #350000",
"; c #3A0000",
": c #3F0000",
"> c #460000",
", c #480000",
"< c #4D0000",
"1 c #530000",
"2 c #570000",
"3 c #580000",
"4 c #5F0000",
"5 c #610000",
"6 c #650000",
"7 c #6B0000",
"8 c #6C0000",
"9 c #720000",
"0 c #730000",
"q c #7B0000",
"w c #7D0000",
"e c #810000",
"r c #870000",
"t c #8A0000",
"y c #8E0000",
"u c #910000",
"i c #940000",
"p c #980000",
"a c #A70000",
"s c #AB0000",
"d c #AF0000",
"f c #B30000",
"g c #B70000",
"h c #B90000",
"j c #F00000",
"k c #F40000",
"l c #FA0000",
"z c red",
/* pixels */
"$tzzzzzzzzzzzzzzzzzzzzt#",
"d=uzzzzzzzzzzzzzzzzzzp=d",
"zh*ulzzzzzzzzzzzzzzzi*gz",
"zzg&ylzzzzzzzzzzzzli&gzz",
"zzzg&tlzzzzzzzzzzzu*hzzz",
"zzzzf%rlzzzzzzzzzu&fzzzz",
"zzzzzf%6eeeeeeee7&fzzzzz",
"zzzzzz0          0zzzzzz",
"zzzzzzw          wzzzzzz",
"zzzzzzw          qzzzzzz",
"zzzzzze          wzzzzzz",
"zzzzzzw          wzzzzzz",
"zzzzzzw          wzzzzzz",
"zzzzzzw          wzzzzzz",
"zzzzzzw          wzzzzzz",
"zzzzzzw          wzzzzzz",
"zzzzzj1          1jzzzzz",
"zzzzj7.          .8jzzzz",
"zzzj0  .XX.XXX.X.  0kzzz",
"zzj0..&,<111<111<*X 0jzz",
"zk0X#,555555555554,#X0kz",
"jw@:3545544545545554:@wj",
"0=25455454545455454453-0",
"0$>455454545454554554>$0",
"jwX%<454555554555541%oqk",
"zkw.X=255555555552=X.wkz",
"zzkq. O=;;;:;;;;-+ .qkzz",
"zzzkq.            .qkzzz",
"zzzzj0X          .0lzzzz",
"zzzzzk3          3kzzzzz",
"zzzzzze          wzzzzzz",
"zzzzzzw          wzzzzzz",
"zzzzzzw          ezzzzzz",
"zzzzzzw          wzzzzzz",
"zzzzzze          wzzzzzz",
"zzzzzzw          wzzzzzz",
"zzzzzzw          wzzzzzz",
"zzzzzzw          ezzzzzz",
"zzzzzz8          8zzzzzz",
"zzzzza$6eeeeeeee7$azzzzl",
"zzzzs$tlzzzzzzzzlu%szzzz",
"zzzf%tlzzzzzzzzzzzi&dzzz",
"zzf%ylzzzzzzzzzzzzli&fzz",
"zf&ulzzzzzzzzzzzzzzzi&gz",
"d=ilzzzzzzzzzzzzzzzzzi=d",
"#tzzzzzzzzzzzzzzzzzzzlt$"
};
