/* XPM */
static char *_2124b8be20545fb80518ecf2da0720b[] = {
/* columns rows colors chars-per-pixel */
"24 24 66 1 ",
"  c #770000",
". c #7A0000",
"X c #7E0000",
"o c #7F0000",
"O c #797979",
"+ c #7C7C7C",
"@ c #800909",
"# c #800B0B",
"$ c #811212",
"% c #811414",
"& c #821C1C",
"* c #822121",
"= c #832727",
"- c #842727",
"; c #842929",
": c #842B2B",
"> c #852E2E",
", c #852F2F",
"< c #863232",
"1 c #863636",
"2 c #863939",
"3 c #894242",
"4 c #894343",
"5 c #894444",
"6 c #894545",
"7 c #8A4949",
"8 c #8B4D4D",
"9 c #8C4C4C",
"0 c #8C4F4F",
"q c #8D5050",
"w c #8F5757",
"e c #915D5D",
"r c #936363",
"t c #936464",
"y c #956969",
"u c #987070",
"i c #997373",
"p c #9B7777",
"a c #808080",
"s c gray59",
"d c #A58D8D",
"f c #A69090",
"g c #AB9A9A",
"h c #A5A5A5",
"j c gray65",
"k c gray66",
"l c #A9A9A9",
"z c #B1A6A6",
"x c #B3A9A9",
"c c #B4A9A9",
"v c #B8B2B2",
"b c #B9B3B3",
"n c #B9B4B4",
"m c #BBB7B7",
"M c #BCBABA",
"N c #BDBBBB",
"B c #BDBCBC",
"V c gray",
"C c #C0BFBF",
"Z c #BFC0C0",
"A c #C3C3C3",
"S c #C2C5C5",
"D c gray77",
"F c gray78",
"G c #C5C9C9",
"H c #C5CACA",
/* pixels */
"a+OOOOOOOOOOOOOOOOOOOOOO",
"+skhhhhkhhhhhhhkhhhhhhhh",
"OkFAAACAFAAAAAFAAAAAFAAA",
"OhAVVVAAAZAZZAZAZAZAAVVV",
"OhAVVmbmvmbmbbbbbbvbVCVV",
"OhFVAyo,=;;;;;;=;;=$cSVA",
"OhFVAr ooo..o..o.o..cSVV",
"OkAVZr.&o=444444462iVAVA",
"OhAZZr.*.uVMMBMMMMMAAVVZ",
"OhAVAro=.pGAAZSSSSAVVAAV",
"OhAVZr.*.uMmmvmvmvbSAVVV",
"OkAVAt.&o;21<<<>;;=tmAVA",
"OhFVVe o.o.....oooo zSVC",
"OhFVAp287888888>o&&ozFVV",
"OhAVAMMMVVVVVVZg.ooozAVV",
"OhAVVASASSVAASHxoo$@zSVA",
"OhAVAmbbbbbbbbVd.ooomHVZ",
"OhAVAyo1,,,,,,2o$&o.kHZZ",
"OhFVAw .o....o.ooo. zSVZ",
"OkAVAd4qq999999988qdVAZZ",
"OhFVVZVMVMMMVMVMVMVAZVVA",
"OhAVZAZAAAAAAVAAAZAVCAVV",
"OhAVVVVVVVVVVVVAVVVAVAAV",
"OhAVAAVAVACACCVAVAVVAVVA"
};
