/* XPM */
static char *_74f7096cb6a49b8c2018f56845090ce[] = {
/* columns rows colors chars-per-pixel */
"24 24 2 1 ",
"  c #808080",
". c #C0C0C0",
/* pixels */
"                      ..",
"                      ..",
"                      ..",
"                      ..",
"                      ..",
"                      ..",
"                      ..",
"                      ..",
"                      ..",
"                      ..",
"                      ..",
"                      ..",
"                      ..",
"                      ..",
"                      ..",
"                      ..",
"                      ..",
"                      ..",
"                      ..",
"                      ..",
"                      ..",
"                      ..",
"........................",
"........................"
};
