/* XPM */
static char *_edd5beeb74b41e2e547a26854d1248f[] = {
/* columns rows colors chars-per-pixel */
"24 24 40 1 ",
"  c black",
". c #070707",
"X c #101010",
"o c #151515",
"O c gray10",
"+ c gray14",
"@ c #252525",
"# c gray16",
"$ c #2D2D2D",
"% c gray23",
"& c #3E3E3E",
"* c #434343",
"= c #484848",
"- c #4C4C4C",
"; c gray31",
": c #515151",
"> c #5A5A5A",
", c #5D5D5D",
"< c #686868",
"1 c gray43",
"2 c gray47",
"3 c #797979",
"4 c #7C7C7C",
"5 c #808080",
"6 c #8B8B8B",
"7 c gray57",
"8 c gray59",
"9 c gray60",
"0 c gray62",
"q c gray64",
"w c #A5A5A5",
"e c gray66",
"r c gray68",
"t c #B1B1B1",
"y c gray72",
"u c #BCBCBC",
"i c gray",
"p c #C3C3C3",
"a c gray78",
"s c #CBCBCB",
/* pixels */
"543333333333333333333333",
"48ewwwwwwewwewewwwwwwwww",
"3eapppppappppppppppasppa",
"3wpiipiiipiiipippiiiiiii",
"3wpiiiiiiuiiiiuiiiuiiipi",
"3wppi<*;---;;---;;=;upip",
"3waii%              rpii",
"3epip1          oo $tpip",
"3waiii00000000q3 o @tapi",
"3wpiiiaaaaaapps9 O #tpii",
"3wpipiiiiiiiiip3 @ :ipii",
"3wpipipiiipiipt@ O 7aiip",
"3waiiipipiipip1 @ :ipiip",
"3wpipiipipiiaw .o 0aiipi",
"3wpiippiipiii> @ ,ipiipi",
"3wppipiipiia8 o. qaiipip",
"3wpippipiipy% @ 1piipiip",
"3wpiiiiipia6 +  rpiiippi",
"3wppippiiip, o 3aiipiiii",
"3wpipiipiip2X$&tpipippip",
"3wppiipiiipiurupiiipiipi",
"3wpiippipiippppippiipiip",
"3wpipiipippiiiipipippiip",
"3wpiipiiipiipiipiiipiipi"
};
