/* XPM */
static char *ab0959564cce4b10f3c09c1bdc2e011d[] = {
/* columns rows colors chars-per-pixel */
"24 24 69 1 ",
"  c #000077",
". c #000078",
"X c #00007C",
"o c #797979",
"O c #7C7C7C",
"+ c navy",
"@ c #040480",
"# c #090980",
"$ c #0C0C80",
"% c #121281",
"& c #171782",
"* c #181881",
"= c #1E1E82",
"- c #212182",
"; c #232383",
": c #252583",
"> c #252584",
", c #2A2A84",
"< c #323285",
"1 c #373787",
"2 c #3A3A87",
"3 c #3E3E87",
"4 c #404088",
"5 c #45458A",
"6 c #47478A",
"7 c #4F4F8D",
"8 c #53538D",
"9 c #55558E",
"0 c #57578F",
"q c #5A5A8F",
"w c #5A5A90",
"e c #5E5E91",
"r c #636393",
"t c #666694",
"y c #696995",
"u c #6E6E97",
"i c #707098",
"p c #77779B",
"a c #79799C",
"s c #7D7D9D",
"d c #7E7E9E",
"f c #808080",
"g c gray59",
"h c #8181A0",
"j c #8282A0",
"k c #8686A2",
"l c #9797AA",
"z c #9B9BAC",
"x c #9F9FAE",
"c c #A5A5A5",
"v c #A1A1AF",
"b c gray66",
"n c #ABABB4",
"m c #ACACB5",
"M c #B0B0B7",
"N c #B1B1B7",
"B c #B2B2B8",
"V c #B7B7BB",
"C c #B8B8BB",
"Z c #B8B8BC",
"A c #BBBBBD",
"S c gray",
"D c #C0C0BF",
"F c #BFBFC0",
"G c gray76",
"H c #C3C3C3",
"J c #C5C5C3",
"K c gray78",
"L c #C8C8C4",
/* pixels */
"fOoooooooooooooooooooooo",
"Ogbccccccccccbccccccbccc",
"obKGGGGGKGKJGKKGJGGGKKGG",
"ocGSGSGSSGSSSSSGGSGSSSSS",
"ocGGSGGDGAAASSAVAAAGGSGS",
"obGSFSSGj23>vKi:6*jJSGSG",
"ocKGGFJv.X.<CGe # aJSGGS",
"ocGSSSGuX,.jKGeX,.sJGSSG",
"ocGSSGN%++XmKSw.-.aKDSGS",
"ocGGSKkX>.yGGDwX>.sKSGSG",
"ocGSGA4X*XlGVA7X-.pGSGSS",
"ocGSKz.=$%4666&+@+-7NGSG",
"ocKSS9.+XXX..X+@+$+.nGSS",
"obGSSr,3223333&+@+%1MGGG",
"ocJSGSVAAACCAA9X- iSSDGS",
"ocGGFSGGGGDGGGw.: sKSGSG",
"ocGSGSSSSFSFGSqX-.aJSGSG",
"ocKSGSDGSGGSGDqX>.sJGSGS",
"ocKSGSGSGSGFSG8.$.aJSGSG",
"obGSSGSGSGSFGSt:6&jJSSGS",
"ocGGGSGSGSGSDGVAVVSSFGSG",
"ocGSSGSGSGSGDSGGGGGGGSGS",
"ocKSGSGSGSGSGSSSSSSSSGSG",
"ocGSSGSGSGSGSGGGSGGSGSGS"
};
