/* XPM */
static char *_697082044e948e3ebb12d74026d4cd2[] = {
/* columns rows colors chars-per-pixel */
"24 24 56 1 ",
"  c #007575",
". c #007979",
"X c #007E7E",
"o c #797979",
"O c #7C7C7C",
"+ c #008080",
"@ c #078080",
"# c #0D8181",
"$ c #168181",
"% c #188181",
"& c #1D8282",
"* c #218282",
"= c #248383",
"- c #268383",
"; c #388686",
": c #3D8888",
"> c #438989",
", c #4D8C8C",
"< c #548E8E",
"1 c #588F8F",
"2 c #599090",
"3 c #5F9191",
"4 c #609191",
"5 c #619393",
"6 c #649393",
"7 c #679494",
"8 c #6B9696",
"9 c #808080",
"0 c #809F9F",
"q c gray59",
"w c #83A1A1",
"e c #89A3A3",
"r c #8EA5A5",
"t c #90A6A6",
"y c #94A9A9",
"u c #99ABAB",
"i c #9EADAD",
"p c #9FAEAE",
"a c #A5A5A5",
"s c gray66",
"d c #A8B3B3",
"f c #AAB3B3",
"g c #AAB4B4",
"h c #AEB6B6",
"j c #B2B8B8",
"k c #B4B9B9",
"l c #B7BBBB",
"z c #B8BCBC",
"x c gray",
"c c #C0BFBF",
"v c #BFC0C0",
"b c gray76",
"n c #C2C3C3",
"m c #C4C2C2",
"M c gray78",
"N c #C9C5C5",
/* pixels */
"9Ooooooooooooooooooooooo",
"Oqsaaaaasaaaasaasaaaasaa",
"osMbmMMbnbbbbbMbbbnbMbnb",
"oabxxxxbbmbmmbbbmmmxxxbx",
"oabvxmzgfhfhgfffffdxbxxb",
"osbxbh:XXX++X++++++hbxbx",
"oaMxMr %+XX.X..X..Xjbcxb",
"oabxmt.&+@24344341ecbxbx",
"oabxNt.&++hmbcbcxbbcbcxb",
"oabxMt.&+@kNbmmmMmbcxcbx",
"osbxmt.&X+uhffgggghxbxbb",
"oabxMt.%+++++++++X+,hmxc",
"osMxmt.%++.X.X.X++$ wMxb",
"oamzNt.%+#24344<XX&.0bxb",
"oabxmt.&X-kmxbbz;X*.0mxx",
"oanxMt.&X-lNmmmb>X*.0Nxb",
"osbxMr.%X&phffhi=X&.wmbx",
"oabxmr.-$%X++X+X#$=.wmxb",
"osnxbi.X.XX.X.X..X. ybxb",
"oaMxcbr677766777778ybbxx",
"oaMxbbbbbbbbbbbbbbbbcxbx",
"oabxcxxcxbxccccxxcbbxbxb",
"oabxbxbxxxxbcbxbbxbxbxbx",
"oaMxxbxbbxbxbxbbxbxbxbxb"
};
