/* XPM */
static char *_15c99a9de3b45eec4766266cecb38d3[] = {
/* columns rows colors chars-per-pixel */
"24 24 21 1 ",
"  c gray45",
". c #797979",
"X c #7C7C7C",
"o c #808080",
"O c gray53",
"+ c #888888",
"@ c gray55",
"# c gray57",
"$ c gray59",
"% c #979797",
"& c #9B9B9B",
"* c gray64",
"= c #A5A5A5",
"- c gray66",
"; c #ACACAC",
": c #B2B2B2",
"> c #B7B7B7",
", c gray73",
"< c gray",
"1 c gray76",
"2 c gray78",
/* pixels */
"oX......................",
"X$-======-==-=-=====-==.",
".-212111211112211211211.",
".=1<<<<<<<1<<<<<<<1<<<1.",
".=1<<121111111<111111<1.",
".-2<1>&$$$$$$$$##$#*<1<.",
".=2<1$ X.X.....X.X..:11.",
".=1<1#Xooooooooooo+.:1<.",
".=1<1#XoX@:>::>=XooX:2<.",
".=2<1$Xo.$21112:Xooo:1<.",
".=2<1# OX#11<<1-Xoo.:1<.",
".=1<1-Oooo@####+ooo@>2<.",
".=2<<11+XoX...XXO.*21<<.",
".=2<1>*oooXXoooooX@><<1.",
".=1<1$ XX@:>::>=XoX.>1<.",
".=1<1$X+X$12112:XooX:1<.",
".=1<1$.oX#11<<1;XooX>1<.",
".-111#Xooo####$+oooo:1<.",
".=2<1#.OooXXXXXXooX.:1<.",
".=1<1;oXoXoXXoXoXoo&1<<.",
".=1<11>:::::::::::><<<1.",
".=2<<1111121211121111<1.",
".=11<1<1<<<<<<1<<<<<<1<.",
".=1<1<1<1<11<1<1<11<1<1."
};
