/* XPM */
static char *_13bed6b10a045e691f469dcfed3e6d7[] = {
/* columns rows colors chars-per-pixel */
"24 24 71 1 ",
"  c #007400",
". c #007A00",
"X c #007D00",
"o c #007F00",
"O c #797979",
"+ c #7C7C7C",
"@ c #008000",
"# c #098109",
"$ c #0D810D",
"% c #158115",
"& c #1A811A",
"* c #1C821C",
"= c #218321",
"- c #268326",
"; c #288328",
": c #298429",
"> c #2E842E",
", c #338633",
"< c #358635",
"1 c #3B873B",
"2 c #3C873C",
"3 c #438943",
"4 c #468A46",
"5 c #478A47",
"6 c #4C8C4C",
"7 c #4F8C4F",
"8 c #538D53",
"9 c #578F57",
"0 c #5A905A",
"q c #669466",
"w c #679567",
"e c #699569",
"r c #6F986F",
"t c #719871",
"y c #749A74",
"u c #759A75",
"i c #7A9C7A",
"p c #7B9D7B",
"a c #7D9E7D",
"s c #7E9E7E",
"d c #808080",
"f c gray59",
"g c #82A082",
"h c #83A083",
"j c #8CA48C",
"k c #8DA58D",
"l c #91A791",
"z c #94A894",
"x c #98AB98",
"c c #9FAE9F",
"v c #A5A5A5",
"b c gray66",
"n c #A7B2A7",
"m c #A9B3A9",
"M c #AFB7AF",
"N c #B0B7B0",
"B c #B3B9B3",
"V c #B4B9B4",
"C c #B6BAB6",
"Z c #B8BBB8",
"A c #BBBDBB",
"S c gray",
"D c #BFC0BF",
"F c #C0C0C0",
"G c #C3C1C3",
"H c gray76",
"J c #C3C3C3",
"K c #C4C2C4",
"L c #C7C4C7",
"P c gray78",
"I c #CCC7CC",
/* pixels */
"d+OOOOOOOOOOOOOOOOOOOOOO",
"+fbvvvvvvvvvvvvvvvvbvvvO",
"ObPHHPHHPHHPHHPHHHKHPHPO",
"OvHSSSHFSHHSHHSHHDHSSSSO",
"OvHHSHHAAASSAAAAAAAHHDHO",
"ObHSHM9344444444441sSSSO",
"OvPSKp XX..XXX..XX..mKSO",
"OvHSKyX;******=#X%%XnPSO",
"OvHSKe X qZNNNNN9X%XnKSO",
"OvHSHxphixKFHKKIy.*.nKSO",
"ObHHSKKKKHFHKFVk;X*XmHSO",
"OvKSFFSSHKFNlq-.X%.;AHSO",
"ObHFHSHHMj0$.XXX.X4cKSFO",
"OvPSHKnqX.X@X.X6hnHKSFFO",
"OvHSKz..@#.X6gmSKKHSHSFO",
"OvHSKt.-@-snSPKHHSFHSHFO",
"OvHSKy.=.wHKSSFSSASSHHSO",
"OvHSKy.=X>6466666666NHHO",
"OvPSPr XXX....X....XMKSO",
"ObHSHs*41122221<<,>;MKFO",
"OvHHSACACZZZCACCCCCBAFSO",
"OvHSHHHHHHHHHDHHHHHKSFHO",
"OvHDSHSSSSSSDSHSSSSSSHSO",
"ObHSHSHSHSHHDDSHFFHSHSHO"
};
