/* XPM */
static char *_1e0294491f14ff89f7ec6ee6486c476[] = {
/* columns rows colors chars-per-pixel */
"24 24 152 2 ",
"   c #1C1D1D",
".  c #2D1616",
"X  c #341B1B",
"o  c #3E1C1C",
"O  c #222324",
"+  c #2A2324",
"@  c #252728",
"#  c #2B2B2B",
"$  c #332425",
"%  c #322628",
"&  c #312D2E",
"*  c #3C292A",
"=  c #333335",
"-  c #3E3536",
";  c #333638",
":  c #3C3B3C",
">  c #430C0B",
",  c #540304",
"<  c #5C0303",
"1  c #570D0D",
"2  c #5A0B0B",
"3  c #431E1F",
"4  c #4C1A1B",
"5  c #581717",
"6  c #5D1C1C",
"7  c #620202",
"8  c #6D0101",
"9  c #6D0B0B",
"0  c #720303",
"q  c #7C0202",
"w  c #730909",
"e  c #7F0B0B",
"r  c #641414",
"t  c #6B1415",
"y  c #6F1F1F",
"u  c #731617",
"i  c #741F1F",
"p  c #4B2022",
"a  c #452E2F",
"s  c #562728",
"d  c #512D2E",
"f  c #452F30",
"g  c #4D373A",
"h  c #563132",
"j  c #6C2626",
"k  c #6F2628",
"l  c #7C2B2B",
"z  c #703132",
"x  c #3F3F40",
"c  c #403F42",
"v  c #3F4043",
"b  c #414144",
"n  c #454549",
"m  c #4A4B4E",
"M  c #534647",
"N  c #5D4649",
"B  c #4D4E50",
"V  c #504E50",
"C  c #525255",
"Z  c #56565A",
"A  c #57585C",
"S  c #5A5A5D",
"D  c #6B4346",
"F  c #7F4045",
"G  c #794D51",
"H  c #5C5C60",
"J  c #655D61",
"K  c #686064",
"L  c #67686E",
"P  c #69696E",
"I  c #6C6C71",
"U  c #726970",
"Y  c #707177",
"T  c #737379",
"R  c #79797E",
"E  c #830101",
"W  c #8C0101",
"Q  c #830808",
"!  c #930202",
"~  c #9C0101",
"^  c #9F0A0A",
"/  c #821516",
"(  c #891515",
")  c #841B1C",
"_  c #971A1B",
"`  c #9D1B1C",
"'  c #A60101",
"]  c #AB0303",
"[  c #A40B0B",
"{  c #AB0D0D",
"}  c #B20101",
"|  c #BA0303",
" . c #BA0B0B",
".. c #A81212",
"X. c #B51717",
"o. c #BB1111",
"O. c #912424",
"+. c #952A2C",
"@. c #9F2E2E",
"#. c #8A2F31",
"$. c #83383B",
"%. c #88393A",
"&. c #933537",
"*. c #983434",
"=. c #A02424",
"-. c #BE2626",
";. c #A13838",
":. c #C40404",
">. c #C50A0A",
",. c #D00E0E",
"<. c #C11515",
"1. c #C81313",
"2. c #C61E1E",
"3. c #CF1E1E",
"4. c #D21212",
"5. c #D41A1A",
"6. c #D81919",
"7. c #C22020",
"8. c #CB2626",
"9. c #CE2A2A",
"0. c #DD2323",
"q. c #DC2A2A",
"w. c #E72929",
"e. c #E33535",
"r. c #E43B3B",
"t. c #EF3939",
"y. c #F53A3A",
"u. c #8A464A",
"i. c #914A4E",
"p. c #A54445",
"a. c #BA4646",
"s. c #BC565A",
"d. c #806065",
"f. c #CA4D4E",
"g. c #ED4242",
"h. c #F74141",
"j. c #F84545",
"k. c #FE5353",
"l. c #837D82",
"z. c #AC7B80",
"x. c #84858B",
"c. c #878990",
"v. c #8E8E96",
"b. c #94949C",
"n. c #BB8E95",
"m. c #9797A0",
"M. c #9B9AA3",
"N. c #A19DA6",
"B. c #AAABB3",
"V. c #B9B6C0",
"C. c #BABDC5",
"Z. c None",
/* pixels */
"Z.Z.Z.Z.Z.Z.Z.Z.Z.Z.Z.Z.Z.Z.Z.Z.Z.Z.Z.Z.Z.Z.Z.Z.",
"Z.Z.Z.Z.Z.Z.Z.Z.P @ Z.Z.Z.Z.Z.Z.Z.Z.Z.Z.Z.Z.Z.Z.",
"Z.Z.Z.Z.Z.Z.Z.Z.v.m   Z.Z.Z.Z.Z.Z.Z.Z.Z.Z.Z.Z.Z.",
"Z.Z.Z.Z.Z.Z.Z.Z.m.c.@ . Z.Z.Z.Z.Z.T C Z.Z.Z.Z.Z.",
"Z.Z.Z.Z.Z.Z.Z.Z.l.n.) ! ~ ! r J v.m H Z.Z.Z.Z.Z.",
"Z.Z.Z.Z.Z.Z.Z.Z.` o.| } ] / K M.H ; T Z.Z.Z.Z.Z.",
"Z.Z.Z.Z.Z.Z.Z.| :.>.>. .] +.M.Y # v d.Z.Z.Z.Z.Z.",
"Z.Z.Z.C v - [ :.4.6.0.3.o.{ u.- O m u.>   @ Z.Z.",
"Z.Z.R B.C.z.| ,.w.j.j.r.2.{ ! 9 4 s t 2 $ n Z.Z.",
"Z.Z.Z.n x.s.:.6.y.k.k.g.8.../ 9 8 8 7 t D Z.Z.Z.",
"Z.Z.Z.Z.$ [ | 5.t.k.k.r.-.z - # X 2 < l %.Z.Z.Z.",
"Z.Z.Z.Z.Z.] | 1.q.r.e.9.#.B B g # 3 , l p.Z.Z.Z.",
"Z.Z.Z.Z.Z.' }  .<.2.2.X.j : n m v g , i *.Z.Z.Z.",
"Z.Z.Z.Z.M _ ' ] ] { [ ^ t # # # x d , 9 $.Z.Z.Z.",
"Z.Z.Z.Z x.i.~ ~ ~ ~ ! ! q o @ x N 2 < 0 p b Z.Z.",
"Z.Z.S I A a Q ! ! W W E q 0 r k u 9 8 ) J n Z.Z.",
"Z.Z.b & O O 1 E E e &.#.w e ( O.O.) Q Z.Z.Z.Z.Z.",
"Z.Z.Z.Z.Z.Z.Z.8 q h V.N.* 5 @.a.a.=.w Z.Z.Z.Z.Z.",
"Z.Z.Z.Z.Z.Z.Z.Z.7 f B.v.O + ;.f.p.6 Z.Z.Z.Z.Z.Z.",
"Z.Z.Z.Z.Z.Z.Z.Z.Z.& m.T   o y G U Z.Z.Z.Z.Z.Z.Z.",
"Z.Z.Z.Z.Z.Z.Z.Z.Z.Z.x.A   Z.Z.; P Z.Z.Z.Z.Z.Z.Z.",
"Z.Z.Z.Z.Z.Z.Z.Z.Z.Z.T b Z.Z.Z.Z.Z.Z.Z.Z.Z.Z.Z.Z.",
"Z.Z.Z.Z.Z.Z.Z.Z.Z.Z.Z = Z.Z.Z.Z.Z.Z.Z.Z.Z.Z.Z.Z.",
"Z.Z.Z.Z.Z.Z.Z.Z.Z.Z.Z.Z.Z.Z.Z.Z.Z.Z.Z.Z.Z.Z.Z.Z."
};
