/* XPM */
static char *d87cddb38e9a4aadb2b3c8137396752f[] = {
/* columns rows colors chars-per-pixel */
"24 24 9 1 ",
"  c #797979",
". c #7C7C7C",
"X c #808080",
"o c gray59",
"O c #A5A5A5",
"+ c gray66",
"@ c gray",
"# c gray76",
"$ c gray78",
/* pixels */
"X.                      ",
".o+OOOOOOOOOOOOO+OOOO+O ",
" +$##$##$$#$##$#####$## ",
" O#@@@#@@@@@#@#@@#@@@@# ",
" O##@#@#@#@#@#@#@#@#@#@ ",
" +#@#@#@#@#@#@#@#@#@#@# ",
" O$#@#@#@#@#@#@#@#@#@#@ ",
" O#@#@#@#@#@#@#@#@#@#@# ",
" O#@@#@#@#@#@#@#@#@#@#@ ",
" O$@#@#@#@#@#@#@#@#@#@# ",
" O##@#@#@#@#@#@#@#@#@#@ ",
" O#@#@#@#@#@#@#@#@#@#@# ",
" O$@@#@#@#@#@#@#@#@#@#@ ",
" O#@#@#@#@#@#@#@#@#@#@# ",
" O$@@#@#@#@#@#@#@#@#@#@ ",
" O#@#@#@#@#@#@#@#@#@#@# ",
" +$@@#@#@#@#@#@#@#@#@#@ ",
" O#@#@#@#@#@#@#@#@#@#@# ",
" +#@@#@#@#@#@#@#@#@#@#@ ",
" O$@#@#@#@#@#@#@#@#@#@# ",
" O#@@#@#@#@#@#@#@#@#@#@ ",
" O$@#@#@#@#@#@#@#@#@#@# ",
" O##@#@#@#@#@#@#@#@#@#@ ",
" O#@#@#@#@#@#@###@#@#@# "
};
