/* XPM */
static char *_c590bda11c34b32ae1f64bbca00cc42[] = {
/* columns rows colors chars-per-pixel */
"24 24 50 1 ",
"  c #797979",
". c #7C7C7C",
"X c blue",
"o c #0707FF",
"O c #1111FE",
"+ c #1A1AFE",
"@ c #2222FD",
"# c #2525FC",
"$ c #2424FD",
"% c #2C2CFB",
"& c #2828FD",
"* c #2A2AFC",
"= c #3030FB",
"- c #3737FA",
"; c #3F3FF9",
": c #4D4DF6",
"> c #4242F8",
", c #5454F4",
"< c #5656F4",
"1 c #5B5BF3",
"2 c #5F5FF1",
"3 c #5D5DF2",
"4 c #6B6BEE",
"5 c #7F7FE7",
"6 c #7373EB",
"7 c #7777EB",
"8 c #7878EA",
"9 c #7C7CE8",
"0 c #6060F1",
"q c #808080",
"w c gray59",
"e c #A5A5A5",
"r c gray66",
"t c gray",
"y c #C4C4BB",
"u c #C1C1BF",
"i c #C4C4BC",
"p c #9494DD",
"a c #9999DA",
"s c #B6B6C6",
"d c #BDBDC0",
"f c #B8B8C5",
"g c #B4B4C8",
"h c #B4B4C9",
"j c #8585E4",
"k c #8484E5",
"l c gray76",
"z c #C4C4C3",
"x c #C3C3C4",
"c c gray78",
/* pixels */
"q.                      ",
".wreeerereeerereeerereee",
" rclllllclcllzxcllllclll",
" elttltlttttuttttltlttlt",
" elltlltduludddldlutltlt",
" rltlttludya;>jutltltltl",
" ecltlttdld:XX6yltltltlt",
" eltltlduy5X&X8ydltltltl",
" eltltuyd8Xo+X7iltltltlt",
" elltuup&XoX+X7idltltltl",
" rxtltu0X;OX+X7ildtlltlt",
" elutlufff1X@X7idtlttltl",
" rcttltuyy0X$X7idltltltl",
" eltltldtu0X@X7iltltltlt",
" elltluult0X$X7udltltltl",
" eltltuuuu0X#X8ytultltlt",
" elltltdtd3X@X8ltdltltlt",
" rltltu6><@XOX%<>kidtltl",
" ecltlu<XXXXXXXXX6utltlt",
" eltltu4o-%%%&=-X9yltltl",
" ecttltffhfggfgggfutltlt",
" eltlttluuduliuuuulltltl",
" eltltlttdudlttttultltlt",
" ecttltlltlldulllttltltl"
};
