/* XPM */
static char *_6f22e497752425ec6a454da4515e9f6[] = {
/* columns rows colors chars-per-pixel */
"120 72 73 1 ",
"  c #7E2537",
". c #7F2537",
"X c #7D2738",
"o c #792B3B",
"O c #7B2A3B",
"+ c #7C2839",
"@ c #7D293A",
"# c #792D3C",
"$ c #782D3D",
"% c #782E3D",
"& c #74313F",
"* c #76303E",
"= c #76313F",
"- c #6F3843",
"; c #6E3943",
": c #6F3944",
"> c #6D3B45",
", c #6F3A44",
"< c #6B3D46",
"1 c #6C3C46",
"2 c #6C3D46",
"3 c #6A3F48",
"4 c #743240",
"5 c #723440",
"6 c #733441",
"7 c #5F4B4F",
"8 c #5E4C50",
"9 c #5C4E51",
"0 c #5D4E51",
"q c #5E4E51",
"w c #5D4F52",
"e c #575455",
"r c #575555",
"t c #575656",
"y c gray34",
"u c #5B5052",
"i c #5A5253",
"p c #585354",
"a c #5B5254",
"s c #585556",
"d c #674149",
"f c #67434A",
"g c #65444B",
"h c #63454C",
"j c #63464C",
"k c #63474D",
"l c #64464C",
"z c #65464C",
"x c #6A4048",
"c c #684249",
"v c #63484D",
"b c #61494E",
"n c #614A4E",
"m c #624A4F",
"M c #604B50",
"N c #604C50",
"B c #8F112B",
"V c #8F132C",
"C c #8B162E",
"Z c #8C152D",
"A c #8D152D",
"S c #8E142C",
"D c #8A192F",
"F c #91112B",
"G c #861D32",
"H c #851E33",
"J c #841F34",
"K c #891930",
"L c #881A30",
"P c #881B31",
"I c #832135",
"U c #842034",
"Y c #802537",
/* pixels */
"yyyyyyyyyyyyyyyyyyyyyyyyyyyyyyyyyyyyyyyyyyyyyyyyyyyyyyyyyyyyyyyyyyyyyyyyyyyyyyyyyyyyyyyyyyyyyyyyyyyyyyyyyyyyyyyyyyyyyyyy",
"yyyyyyyyyyyyyyyyyyyyyyyyyyyyyyyyyyyyyyyyyyyyyyyyyyyyyyyyyyyyyyyyyyyyyyyyyyyyyyyyyyyyyyyyyyyyyyyyyyyyyyyyyyyyyyyyyyyyyyyy",
"yyyyyyyyyyyyyyyyyyyyyyyyyyyyyyyyyyyyyyyyyyyyyyyyyyyyyyyyyyyyyyyyyyyyyyyyyyyyyyyyyyyyyyyyyyyyyyyyyyyyyyyyyyyyyyyyyyyyyyyy",
"yyyyyyyyyyyyyyyyyyyyyyyyyyyyyyyyyyyyyyyyyyyyyyyyyyyyyyyyyyyyyyyyyyyyyyyyyyyyyyyyyyyyyyyyyyyyyyyyyyyyyyyyyyyyyyyyyyyyyyyy",
"yyyyyyyyyyyyyyyyyyyyyyyyyyyyyyypyyyyyyyyyyyyyyyyyyyyyyyyyyyyyyyyyyyyyyyyyyyyyyeyyyyyyyyyyyyyyyyyyyyyyyyyyyyyyyyyyyyyyyyy",
"yyyyyyyyyyyyyyyyyyyyyyyyyyyyyyyyyyyyyyyyyyyyyyyyyyyyyyyyyyyyyyyyyyyyyyyyyyyyyyysyyyyyyyyyyyyyyyyyyyyyyyyyyyyyyyyyyyyyyyy",
"yyyyyyyyyyyyyyyyyyyyyyyybljjjlbyyyyyyyy9jjjlllyyyyyyyy7,%.II@6dpyyyyyyyyyejjjhbbyyyyyyypljjjMuyyyyyyyyyyyyyyyyyyyyyyyyyy",
"yyyyyyyyyyyyyyyyyyyyyyyyDFFFFFFbyyyyyypJFFFFFSpyyyyy<ZFFFFFFFFFF@7yyyyyyyMFFFFFPsyyyyyy:FFFFF=yyyyyyyyyyyyyyyyyyyyyyyyyy",
"yyyyyyyyyyyyyyyyyyyyyyyybFFFFFFJyyyyyycFFFFFF2yyyyiXFFFFFFFFFFFFFF3yyyyyyMFFFFSIyyyyyyy,SFFFF&eyyyyyyyyyyyyyyyyyyyyyyyyy",
"yyyyyyyyyyyyyyyyyyyyyyyyy*FFFFFFxyyyyyKFFFFFHyyyypKFFFFFFFFZFFFFFFF-yyyyyMFFFFFJyyyyyyy1FFFFZ&yyyyyyyyyyyyyyyyyyyyyyyyyy",
"yyyyyyyyyyyyyyyyyyyyyyyyyiZFFFFFSyyyy,FFFFFFbyyyy.FFFFFFFFJCFFFFFFFFlyyyyjFFFFFJpyyyyyy1FFFFF&yyyyyyyyyyyyyyyyyyyyyyyyyy",
"yyyyyyyyyyyyyyyyyyyyyyyyyy2FFFFFF;yyyZFFFFF*yyyycSFFFFFF1yyy9XFFFFFFDsyyy7FFFFFJyyyyyyy,FFFFF:yyyyyyyyyyyyyyyyyyyyyyyyyy",
"yyyyyyyyyyyyyyyyyyyyyyyyyyyUFFFFFZ9y:FFFFFZpyyyy.FFFFFBbyyyyyy%FFFFFFhyyyMFFFFFJpyyyyyy1FFFFF&yyyyyyyyyyyyyyyyyyyyyyyyyy",
"yyyyyyyyyyyyyyyyyyyyyyyyyyybFFFFFF69FFFFFF<yyyy9FFFFFF6yyyyyyypZFFFFF.yyy7FFFFFJpyyyyyy,FFFFZ&yyyyyyyyyyyyyyyyyyyyyyyyyy",
"yyyyyyyyyyyyyyyyyyyyyyyyyyyy%FFFFFFFFFFFFUyyyyydFFFFFB9yyyyyyyy-FFFFFZpyyMFFFFFJyyyyyyy,FFFFF&yyyyyyyyyyyyyyyyyyyyyyyyyy",
"yyyyyyyyyyyyyyyyyyyyyyyyyyyyiZFFFFFFFFFFFbyyyyy,FFFFFJyyyyyyyyybFFFFFS9yy7FFFFFJpyyyyyy1FFFFF&yyyyyyyyyyyyyyyyyyyyyyyyyy",
"yyyyyyyyyyyyyyyyyyyyyyyyyyyyy<FFFFFFFFFF6yyyyyy6FFFFF.eyyyyyyyy7FFFFFZbyybFFFFFJeyyyyyy1FFFFZ6yyyyyyyyyyyyyyyyyyyyyyyyyy",
"yyyyyyyyyyyyyyyyyyyyyyyyyyyyyyUFFFFFFFFZuyyyyyy.FFFFS6yyyyyyyyyeKFFFFFbyyNFFFFFJyyyyyyy;FFFFF&yyyyyyyyyyyyyyyyyyyyyyyyyy",
"yyyyyyyyyyyyyyyyyyyyyyyyyyyyyybFFFFFFFFcyyyyyyy.FFFFF6yyyyyyyyypZFFFFFlyyNFFFFFJyeyyyyy1FFFFF&yyyyyyyyyyyyyyyyyyyyyyyyyy",
"yyyyyyyyyyyyyyyyyyyyyyyyyyyyyyy%FFFFFFUpyyyyyyy:FFFFFHyyyyyyyyybFFFFFV9yybFFFFFHyyyyyyy1FFFFZ&yyyyyyyyyyyyyyyyyyyyyyyyyy",
"yyyyyyyyyyyyyyyyyyyyyyyyyyyyyyy9ZFFFFFbyyyyyyyy,FFFFFJeyyyyyyyyjFFFFFF9yybFFFFFIeyyeyyy,FFFFF&yyyyyyyyyyyyyyyyyyyyyyyyyy",
"yyyyyyyyyyyyyyyyyyyyyyyyyyyyyyyy@FFFFCpyyyyyyyyMFFFFFFjyyyyyyyy+FFFFFUyyy0FFFFFSyeyyyey3FFFFS6yyyyyyyyyyyyyyyyyyyyyyyyyy",
"yyyyyyyyyyyyyyyyyyyyyyyyyyyyyyyy@FFFFFpyyyyyyyyaCFFFFFIyyyyyyy7FFFFFF*yyypZFFFFF0pyyyyy.FFFFF6yyyyyyyyyyyyyyyyyyyyyyyyyy",
"yyyyyyyyyyyyyyyyyyyyyyyyyyyyyyyp.FFFFS9yyyyyyyyy6FFFFFF*yyyyy9CFFFFFF9yyyiZFFFFFYyyyeyjFFFFFS3yyyyyyyyyyyyyyyyyyyyyyyyyy",
"yyyyyyyyyyyyyyyyyyyyyyyyyyyyyyyyOFFFFFpyyyyyyyyyaZFFFFFFG39M6FFFFFFF%yyyyy#FFFFFBDdib*FFFFFFS9yyyyyyyyyyyyyyyyyyyyyyyyyy",
"yyyyyyyyyyyyyyyyyyyyyyyyyyyyyyyy.FFFFSpyyyyyyyyyy,FFFFFFFFFFFFFFFFFZiyyyyy9FFFFFFFFFFFFFFFFF=yyyyyyyyyyyyyyyyyyyyyyyyyyy",
"yyyyyyyyyyyyyyyyyyyyyyyyyyyyyyyyOFFFFS9yyyyyyyyyyy:FFFFFFFFFFFFFFFF9yyyyyyy-FFFFFFFFFFFFFFFSsyyyyyyyyyyyyyyyyyyyyyyyyyyy",
"yyyyyyyyyyyyyyyyyyyyyyyyyyyyyyyy.SFFFFayyyyyyyyyyyyfFFFFFFFFFFFFFYiyyyyyyyyycFFFFFFFFFFFFF@pyyyyyyyyyyyyyyyyyyyyyyyyyyyy",
"yyyyyyyyyyyyyyyyyyyyyyyyyyyyyyyyOFFFFZ9yyyyyyyyyyyyyp,KFFFFFFFF.fyyyyyyyyyyyyi4FFFFFFFFF@byyyyyyyyyyyyyyyyyyyyyyyyyyyyyy",
"yyyyyyyyyyyyyyyyyyyyyyyyyyyyyyyyyyyyyyyyyyyyyyyyyyyyyyypjlclh9yyyyyyyyyyyyyyyyyyNvffccbayyyyyyyyyyyyyyyyyyyyyyyyyyyyyyyy",
"yyyyyyyyyyyyyyyyyyyyyyyyyyyyyyyyyyyyyyyyyyyyyyyyyyyyyyyyyyyyyyyyyyyyyyyyyyyyyyyyyyyyyyyyyyyyyyyyyyyyyyyyyyyyyyyyyyyyyyyy",
"yyyyyyyyyyyyyyyyyyyyyyyyyyyyyyyyyyyyyyyyyyyyyyyyyyyyyyyyyyyyyyyyyyyyyyyyyyyyyyyyyyyyyyyyyyyyyyyyyyyyyyyyyyyyyyyyyyyyyyyy",
"yyyyyyyyyyyyyyyyyyyyyyyyyyyyyyyyyyyyyyyyyyyyyyyyyyyyyyyyyyyyyyyyyyyyyyyyyyyyyyyyyyyyyyyyyyyyyyyyyyyyyyyyyyyyyyyyyyyyyyyy",
"yyyyyyyyyyyyyyyyyyyyyyyyyyyyyyyyyyyyyyyyyyyyyyyyyyyyyyyyyyyyyyyyyyyyyyyyyyyyyyyyyyyyyyyyyyyyyyyyyyyyyyyyyyyyyyyyyyyyyyyy",
"yyyyyyyyyyyyyyyyyyyyyyyyyyyyyyyyyyyyyyyyyyyyyyyyyyyyyyyyyyyyyyyyyyyyyyyyyyyyyyyyyyyyyyyyyyyyyyyyyyyyyyyyyyyyyyyyyyyyyyyy",
"yyyyyyyyyyyyyyyyyyyyyyyyyyyyyyyyyyyyyyyyyyyyyyyyyyyyyyyyyyyyyyyyyyyyyyyyyyyyyyyyyyyyyyyyyyyyyyyyyyyyyyyyyyyyyyyyyyyyyyyy",
"yyyyyyyyyyyyyyyyyyyyyyyyyyyyyyyyyyyyyyyyyyyyyyyyyyyyyyyyyyyyyyyyyyyyyyyyyyyyyyyyyyyyyyyyyyyyyyyyyyyyyyyyyyyyyyyyyyyyyyyy",
"yyyyyyyyyyyyyyyyyyyyyyyyyyyyyyyyyyyyyyyyyyyyyyyyyyyyyyyyyyyyyyyyyyyyyyyyyyyyyyyyyyyyyyyyyyyyyyyyyyyyyyyyyyyyyyyyyyyyyyyy",
"yyyyyyyyyyyyyyyyyyyyyyyyyyyyyyyyyyyyyyyyyyyyyyyyyyyyyyyyyyyyyyyyyyyyyyyyyyyyyyyyyyyyyyyyyyyyyyyyyyyyyyyyyyyyyyyyyyyyyyyy",
"yyyyyyyyyyyyyyyyyyyyyyyyyyyyyyyyyyyyyyyyyyyyyyyyyyyyyyyyyyyyyyyyyyyyyyyyyyyyyyyyyyyyyyyyyyyyyyyyyyyyyyyyyyyyyyyyyyyyyyyy",
"yyyyyyyyyyyyyyyyyyyyyyyyyyyyyyyyyyyyyyyyyyyyyyyyyyyyyyyyyyyyyyyyyyyyyyyyyyyyyyyyyyyyyyyyyyyyyyyyyyyyyyyyyyyyyyyyyyyyyyyy",
"yyyyyyyyyyyyyyyyyyypyyyyyyyyyyyyyyyyyyyyyyyyyyyyyyyyyyyyyyyyyyyyyyyyyyyyyyyyyyyyyyyyyyyyyyyyyyyyyyyyyyyyyyyyyyyyyyyyyyyy",
"yyyyyyyyyyyyyyyyyyypvllMj9yyyyyyyyyyyyyyyyyy7,%.II@6diyyyyyyyyyyyyyypc6...%62l9yyyyyyplhhbhhjjllffbbf0yyyyyyyyyyyyyyyyyy",
"yyyyyyyyyyyyyyyyyyy,FFFFS&yyyyyyyyyyyyyyyy3ZFFFFFFFFFF@9yyyyyyyyyy7.FFFFFFFFFFFH,syyy1FFFFFFFFFFSFFFFDyyyyyyyyyyyyyyyyyy",
"yyyyyyyyyyyyyyyyyey1FFFFS6yyyyyyyyyyyyyyyIFFFFFFFFFFFFFF1yyyyyyyyOSFFFFFFFFFFFFFFuyyy1FFFFFFFFFFFFFFFIyyyyyyyyyyyyyyyyyy",
"yyyyyyyyyyyyyyyyyyy,FFFFS&yyyyyyyyyyyyypKFFFFFFFFFFFFFFFF-yyyyyyOFFFFFFFFFFFFFFFFpyyy,FFFFFFFFFFFFFFFIpyyyyyyyyyyyyyyyyy",
"yyyyyyyyyyyyyyyyyyy,FFFFB&yyyyyyyyyyyyy.FFFFFFFSJDFFFFFFFFhyyyybFFFFFFFFU.KFFFFFSusyy,FFFFFFFFFFFFFFFJpyyyyyyyyyyyyyyyyy",
"yyyyyyyyyyyyyyyyyyy,FFFFS&yyyyyyyyyyyylFFFFFFF,yyyi+FFFFFFGyyyy+FFFFFSjyyyypb.FFFpyyy1FFFFF@lllljjjff0yyyyyyyyyyyyyyyyyy",
"yyyyyyyyyyyyyyyyyyy1FFFFF&yyyyyyyyyyyp.FFFFFSjyyyyyy%FFFFFFdyyyDFFFFFdyyyyyyyyNIFiyyy>FFFFF;yyyyyyyyyyyyyyyyyyyyyyyyyyyy",
"yyyyyyyyyyyyyyyyyyy1FFFFF&yyyyyyyyyyy9BFFFFF=yyyyyyypCFFFFF.yypCFFFFF*ppyyyyyyyy0yyyy>FFFFF&yyyyyyyyyyyyyyyyyyyyyyyyyyyy",
"yyyyyyyyyyyyyyyyyyy,FFFFZ&yyyyyyyyyyy3FFFFFS9yyyyyyyy;FFFFFFyyyKFFFFFFB6dMyyyyyyyyyyy>FFFFF@bfbfbffbfyyyyyyyyyyyyyyyyyyy",
"yyyyyyyyyyyyyyyyyyy1FFFFF:yyyyyyyyyyy1FFFFSJyyyyyyyyybFFFFFZuyy.FFFFFFFFFFF.,9yyyyyyy>FFFFFFFSFFFFFFSiyyyyyyyyyyyyyyyyyy",
"yyyyyyyyyyyyyyyyyyy1FFFFF&yyyyyyyyyyy=SFFFF yyyyyyyyy7BBFFFB7yyjFFFFFFFFFFFFFFI9yyyyy>FFFFFFFFFFFFFFZ9yyyyyyyyyyyyyyyyyy",
"yyyyyyyyyyyyyyyyyyy,FFFFZ&yyyyyyyyyyy.FFFFF6yyyyyyyyyiCFFFFF7yypOZFFFFFFFFFFFFFFdyyyy>FFFFFFFFFFFFFFSiyyyyyyyyyyyyyyyyyy",
"yyyyyyyyyyyyyyyyyyy1FFFFF&eyyyyyyyyyy+FFFFF6yyyyyyyyyiCFFFFFjyyyy6FFFFFFFFFFFFFFFbyyy>FFFFFFFFFFFFFSF0yyyyyyyyyyyyyyyyyy",
"yyyyyyyyyyyyyyyyyyy,FFFFF&yyyyyyyyyye,FFFFFJeyyyyyyyy7FFFFFS9yyyyy7%FFFFFFFFFFFFFXyyy>FFFFF@bfbbjjjfbyyyyyyyyyyyyyyyyyyy",
"yyyyyyyyyyyyyyyyyyy1BFFFC&yyyyyyyyyyy,FFFFFHyyyyyyyyyjFFFFFFuyyyyyyyyb<*KBFFFFFFFUpyy;SFFFF;yyyyyyyyyyyyyyyyyyyyyyyyyyyy",
"yyyyyyyyyyyyyyyyyyy,FFFFF6yyyyyyyyyyyjFFFFFFhyyyyyyyy.FFFFFHyyypyyyyyyyyyi,FFFFFFZpyy2FFFFF&yyyyyyyyyyyyyyyyyyyyyyyyyyyy",
"yyyyyyyyyyyyyyyyyyy1FFFFF&yyyyyyyyyyypDFFFFFJyyyyyyy7FFFFFF6yyaZ%ayyyyyyyyyjFFFFFDyyy2FFFFF&yyyyyyyyyyyyyyyyyyyyyyyyyyyy",
"yyyyyyyyyyyyyyyyyyy,FFFFF:yyyyyyyyyyyy6FFFFFF=yyyyy9DFFFFFB9yypDFF2pyyyyyyy<FFFFFUyyy,FFFFF&yyyyyyyyyyyyyyyyyyyyyyyyyyyy",
"yyyyyyyyyyyyyyyyyyy1FFFFFD.++++++..&yy7SFFFFFFHc9b6FFFFFFF*yyypCFFFF@cj99j%FFFFFB&yyy1FFFFFZX#+@XXXXX*yyyyyyyyyyyyyyyyyy",
"yyyyyyyyyyyyyyyyyyy,FFFFFFFFFFFFFSSHyyy1FFFFFFFFFFFFFFFFFF9yyypCFFFFFFFFFFFFFFFFCuyyy,FFFFFFFFFFSFFFBJyyyyyyyyyyyyyyyyyy",
"yyyyyyyyyyyyyyyyyyy1FFFFFFFFFFFFFFFHyyyy,FFFFFFFFFFFFFFFS7yyyypCFFFFFFFFFFFFFFFFbyyyy1FFFFFFFFFFFFFFFJiyyyyyyyyyyyyyyyyy",
"yyyyyyyyyyyyyyyyyyy1FFFFFFFFFFFFFFSHyyyyycFFFFFFFFFFFFFYpyyyyyyKFFFFFFFFFFFFFFH0yyyyy,FFFFFFFFFFFFFFFJyyyyyyyyyyyyyyyyyy",
"yyyyyyyyyyyyyyyyyyydBFFBFFFFFFFFFFFXyeyyyyi,KFFFFFFFF@fyyyyyyyyyN-JFFFFFFFFF#byyyyyyyxFFFFFFFFFFFFFFFXpyyyyyyyyyyyyyyyyy",
"yyyyyyyyyyyyyyyyyyyyyyyyyyyyyyyyyyyyyyyyyyyyyiMdffl9yyyyyyyyyyyyyyyyNbzfzb0yyyyyyyyyyyyyyyyyyyyyyyyyyyyyyyyyyyyyyyyyyyyy",
"yyyyyyyyyyyyyyyyyyyyyyyyyyyyyyyyyyyyyyyyyyyyyyyyyyyyyyyyyyyyyyyyyyyyyyyyyyyypyyyyyyyyyyyyyyyyyyyyyyyyyyyyyyyyyyyyyyyyyyy",
"yyyyyyyyyyyyyyyyyyyyyyyyyyyyyyyyyyyyyyyyyyyyyyyyyyyyyyyyyyyyyyyyyyyyyyyyyyyyyyyyyyyyyyyyyyyyyyyyyyyyyyyyyyyyyyyyyyyyyyyy",
"yyyyyyyyyyyyyyyyyyyyyyyyyyyyyyyyyyyyyyyyyyyyyyyyyyyyyyyyyyyyyyyyyyyyyyyyyyyyyyyyyyyyyyyyyyyyyyyyyyyyyyyyyyyyyyyyyyyyyyyy",
"yyyyyyyyyyyyyyyyyyyyyyyyyyyyyyyyyyyyyyyyyyyyyyyyyyyyyyyyyyyyyyyyyyyyyyyyyyyyyyyyyyyyyyyyyyyyyyyyyyyyyyyyyyyyyyyyyyyyyyyy",
"yyyyyyyyyyyyyyyyyyyyyyyyyyyyyyyyyyyyyyyyyyyyyyyyyyyyyyyyyyyyyyyyyyyyyyyyyyyyyyyyyyyyyyyyyyyyyyyyyyyyyyyyyyyyyyyyyyyyyyyy",
"yyyyyyyyyyyyyyyyyyyyyyyyyyyyyyyyyyyyyyyyyyyyyyyyyyyyyyyyyyyyyyyyyyyyyyyyyyyyyyyyyyyyyyyyyyyyyyyyyyyyyyyyyyyyyyyyyyyyyyyy"
};
