/* XPM */
static char *_91607fd77874d70b5a0e8367aabefa8[] = {
/* columns rows colors chars-per-pixel */
"48 48 243 2 ",
"   c #010000",
".  c #090500",
"X  c #0E0A01",
"o  c #100700",
"O  c #140B02",
"+  c #1A0804",
"@  c #1D1D0A",
"#  c #251400",
"$  c #281400",
"%  c #251D00",
"&  c #3A1E00",
"*  c #2E2402",
"=  c #372400",
"-  c #3C2200",
";  c #392D01",
":  c #002E3D",
">  c #442300",
",  c #4D2100",
"<  c #4F2B00",
"1  c #512D00",
"2  c #433500",
"3  c #4C3701",
"4  c #7D2700",
"5  c #663D00",
"6  c #6F3C00",
"7  c #3E4E39",
"8  c #524101",
"9  c #644601",
"0  c #784000",
"q  c #764F00",
"w  c #765000",
"e  c #776000",
"r  c #786100",
"t  c #48433F",
"y  c #0A4656",
"u  c #255661",
"i  c #4A4441",
"p  c #584C4B",
"a  c #4B575B",
"s  c #5C575F",
"d  c #655F5D",
"f  c #67625F",
"g  c #6D7B51",
"h  c #823400",
"j  c #8D4200",
"k  c #874800",
"l  c #884800",
"z  c #904800",
"x  c #9D5B00",
"c  c #B24B00",
"v  c #826502",
"b  c #8F6A01",
"n  c #9E6100",
"m  c #906B01",
"M  c #AB6300",
"N  c #BE6600",
"B  c #AA7300",
"V  c #B37104",
"C  c #A8692B",
"Z  c #AF713E",
"A  c #C16B00",
"S  c #C37C00",
"D  c #D37300",
"F  c #DE7B00",
"G  c #E37E00",
"H  c #AF7545",
"J  c #B07545",
"K  c #97801B",
"L  c #B28A02",
"P  c #B88C01",
"I  c #B39300",
"U  c #BB9700",
"Y  c #BB9800",
"T  c #BC8E3D",
"R  c #CA8700",
"E  c #C68D00",
"W  c #C98800",
"Q  c #DC8000",
"!  c #D68B00",
"~  c #DC8A01",
"^  c #DD8D09",
"/  c #C09501",
"(  c #CE9700",
")  c #C29B01",
"_  c #CE9800",
"`  c #D69000",
"'  c #DB9200",
"]  c #DF9D05",
"[  c #EA8500",
"{  c #F18300",
"}  c #F58E00",
"|  c #FB8D00",
" . c #ED9300",
".. c #F09000",
"X. c #FD9600",
"o. c #F59A00",
"O. c #FB9900",
"+. c #DBB700",
"@. c #DDBA00",
"#. c #E5A200",
"$. c #E0AD00",
"%. c #ECAF00",
"&. c #E3A70E",
"*. c #F5A300",
"=. c #FCA400",
"-. c #F6AB00",
";. c #FDAC00",
":. c #EAB600",
">. c #EDB902",
",. c #F7B300",
"<. c #FEB400",
"1. c #F7BB06",
"2. c #FEBC00",
"3. c #F4B508",
"4. c #F6BA09",
"5. c #FCBF0C",
"6. c #ECA91A",
"7. c #E1B615",
"8. c #FEB715",
"9. c #D9A62C",
"0. c #DAB62D",
"q. c #F2C200",
"w. c #FFC301",
"e. c #F3CD01",
"r. c #FECB02",
"t. c #F7C20C",
"y. c #F8C70C",
"u. c #FCCC0D",
"i. c #FDD501",
"p. c #FFDB01",
"a. c #FEDB0C",
"s. c #F4CE1D",
"d. c #FEDE13",
"f. c #F4D01A",
"g. c #FEDF19",
"h. c #FFE403",
"j. c #FEEB05",
"k. c #FFEF0F",
"l. c #FFF302",
"z. c #FFF801",
"x. c #FFF30F",
"c. c #FEEE14",
"v. c #FFE419",
"b. c #FDEF1A",
"n. c #FEF315",
"m. c #FFF21A",
"M. c #FFF91D",
"N. c #FFD722",
"B. c #FFD822",
"V. c #F3D733",
"C. c #F9DD30",
"Z. c #F6DF3A",
"A. c #FDEE20",
"S. c #FFE72F",
"D. c #FFEE2A",
"F. c #FFF421",
"G. c #FFF42A",
"H. c #FDE735",
"J. c #FEEB32",
"K. c #FEEC3C",
"L. c #FFF432",
"P. c #FFF932",
"I. c #FFF43D",
"U. c #FFFA3D",
"Y. c #D6BF6A",
"T. c #E6B569",
"R. c #E1C34C",
"E. c #F4DD45",
"W. c #F9DE41",
"Q. c #F4DF49",
"!. c #FDE341",
"~. c #FEEB4B",
"^. c #FFF047",
"/. c #FFF448",
"(. c #FFFB48",
"). c #FFEF54",
"_. c #FCE95A",
"`. c #FFF555",
"'. c #FFFC55",
"]. c #D7C06B",
"[. c #F0DB7D",
"{. c #FDEF6C",
"}. c #FFF562",
"|. c #FFFC63",
" X c #F7EB77",
".X c #FEF671",
"XX c #FFFD73",
"oX c #FDF27E",
"OX c #5E7E86",
"+X c #548F9C",
"@X c #6A8D96",
"#X c #5FB9D1",
"$X c #70B6CA",
"%X c #35C6F0",
"&X c #66CEE7",
"*X c #71D0E7",
"=X c #8F9497",
"-X c #B39B82",
";X c #B3A796",
":X c #BCAE99",
">X c #9E9EA2",
",X c #C3A79B",
"<X c #CEB3A1",
"1X c #D7CB96",
"2X c #FAEF83",
"3X c #FFF685",
"4X c #FFFE83",
"5X c #FDF48E",
"6X c #FAF294",
"7X c #FFFE94",
"8X c #FEF99F",
"9X c #D5CCA3",
"0X c #D5CFAF",
"qX c #FFFDA5",
"wX c #FDF7AB",
"eX c #FFFEA9",
"rX c #FBF7B1",
"tX c #FEFCB4",
"yX c #F9F6BA",
"uX c #FCF8BE",
"iX c #8EC3D1",
"pX c #AECCD9",
"aX c #B0CDDA",
"sX c #99DCED",
"dX c #B8E4FC",
"fX c #C0C7CF",
"gX c #DCD2CE",
"hX c #C0C8D0",
"jX c #FDFCC4",
"kX c #FDFCCC",
"lX c #CEEAEE",
"zX c #D4EAEF",
"xX c #DFEBEE",
"cX c #C9EBFC",
"vX c #DAE1F3",
"bX c #DBECFB",
"nX c #E0ECEF",
"mX c #EFF4F7",
"MX c #E4F3FB",
"NX c #F2F4F5",
"BX c #F0F5F8",
"VX c #F3FCFF",
"CX c None",
/* pixels */
"CXCXCXCXCXCXCXCXCXCXCXCXCXCXCXCXCXCXCXCXCXCXCXCXCXCXCXCXCXCXCXCXCXCXCXCXCXCXCXCXCXCXCXCXCXCXCXCX",
"CXCXCXCXCXCXCXCXCXCXCXCXCXCXCXCXCXCXCXCXCXCXCXCXCXCXCXCXCXCXCXCXCXCXCXCXCXCXCXCXCXCXCXCXCXCXCXCX",
"CXCXCXCXCXCXCXCXCXCXCXCXCXCXCXCXCXCXCXCXCXCXCXCXCXCXCXCXCXCXCXCXCXCXCXCXCXCXCXCXCXCXCXCXCXCXCXCX",
"CXCXCXCXCXCXCXCXCXCXCXCXCXCXCXCXCXCXCXCXCXCXCXCXCXCXCXCXCXCXCXCXCXCXCXCXCXCXCXCXCXCXCXCXCXCXCXCX",
"CXCXCXCXCXCXCXCXCXCXCXCXCXCXCXCXCXCXCXCXCXCXCXCXCXCXCXCXCXCXCXCXCXCXCXCXCXCXCXCXCXCXCXCXCXCXCXCX",
"CXCXCXCXCXCXCXCXCXCXCXCXCXCXCXCXCXCXCXCX                CXCXCXCXCXCXCXCXCXCXCXCXCXCXCXCXCXCXCXCX",
"CXCXCXCXCXCXCXCXCXCXCXCXCXCXCXCXCX      X % ; 2 2 ; % X       CXCXCXCXCXCXCXCXCXCXCXCXCXCXCXCXCX",
"CXCXCXCXCXCXCXCXCXCXCXCXCXCX      * r I +.e.a.d.d.d.e.+.I r *       CXCXCXCXCXCXCXCXCXCXCXCXCXCX",
"CXCXCXCXCXCXCXCXCXCXCXCXCX    8 U e.v.).3XwXuXjXkXyXwX3X`.v.e.Y 8     CXCXCXCXCXCXCXCXCXCXCXCXCX",
"CXCXCXCXCXCXCXCXCXCXCX    ; ) i.S.2XyXkXkXjXjXjXjXjXjXkXkXyX2XS.p.Y ;     CXCXCXCXCXCXCXCXCXCXCX",
"CXCXCXCXCXCXCXCXCXCX    v r.v. XrXtXeXqXqXeXeXeXeXqXeXqXqXwXtXrX Xv.r.v .   CXCXCXCXCXCXCXCXCXCX",
"CXCXCXCXCXCXCXCXCX  X P i.Z.6X8X7X7X7X7X7X7X7X7X7X7X7X7X7X7X7X7X8X6XZ.i.L X   CXCXCXCXCXCXCXCXCX",
"CXCXCXCXCXCXCXCX  X U i.Q.5X3XoX3X4X4X4X4X4X4X4X4X4X4X4X4X4X4X4XoX3X5XE.i./ X   CXCXCXCXCXCXCXCX",
"CXCXCXCXCXCXCX  . P i.E.oX.XXXXXXXXXXXXXXXXXXXXXXXXXXXXXXXXXXXXXXXXXXXoXE.i.P .   CXCXCXCXCXCXCX",
"CXCXCXCXCXCXCX  m r.V.{.}.}.}.|.|.|.|.|.|.|.|.|.|.|.|.|.|.|.|.|.|.|.}.}.{.V.r.b   CXCXCXCXCXCXCX",
"CXCXCXCXCXCX  3 w.f._.).).`.`.`.`.'.`.'.'.'.'.'.'.'.'.'.'.'.'.`.`.`.`.`.)._.f.w.3   CXCXCXCXCXCX",
"CXCXCXCXCX  . ( w.W.~./././././.(.(.(.(.(.(.(.(.(.(.(.(.(.(.(.(./.(././.~.~.E.r._ .   CXCXCXCXCX",
"CXCXCXCXCX  9 w.s.!.K.K.K.I.I.I.U.I.U.U.U.U.U.U.U.U.U.U.U.U.U.U.I.I.I.I.I.K.!.s.w.9   CXCXCXCXCX",
"CXCXCXCXCX  W w.C.H.S.J.J.L.L.L.L.L.L.P.P.P.P.P.P.P.P.P.P.P.L.L.L.L.L.L.J.J.J.C.r.E   CXCXCXCXCX",
"CXCXCXCX  = ,.4.8.N.D.L.D.D.D.D.G.G.G.G.G.G.G.G.G.G.G.G.G.G.G.G.D.G.S.D.D.D.N.8.4.,.=   CXCXCXCX",
"CXCXCXCX  q 2.4.=...^ 5.a.b.A.A.b.A.m.F.F.F.F.F.M.F.F.F.m.F.F.b.A.G.m.a.5.^ } =.4.w.w   CXCXCXCX",
"CXCXCXCX  B w.t.2.~ 4 H T.6.u.m.M.b.b.b.b.b.b.b.b.b.b.n.b.b.m.M.m.u.6.T.H 4 ~ 2.t.w.B   CXCXCXCX",
"CXCXCXCX  R 2.y.r.] h ;XVX#X7 z ] d.n.n.n.b.k.k.n.k.b.n.n.n.d.] z 7 #XVX;Xh ] r.y.2.R   CXCXCXCX",
"CXCXCXCXX ` <.y.i.>.j :XNX&X: s p , V 3.p.j.x.k.k.n.j.p.3.V , p s : &XNX:Xj >.i.y.2.` . CXCXCXCX",
"CXCXCXCXX ' <.t.i.p.M -XmXsXu gX=X    + g 9.2.a.a.2.9.g +     =XgXu sXBX-XM p.a.y.2.' X CXCXCXCX",
"CXCXCXCX. ! <.2.r.l.$.H xXzX$Xa f i + y %X>Xc u.r.c >X%Xy O i f a $XzXxXZ +.l.r.2.<.! . CXCXCXCX",
"CXCXCXCX  S <.2.w.a.z.` ,XMXlXiX@X@X+X*XaXC %.j.h.%.C pX*X+XOX@XiXlXMX,X! z.a.w.1.<.S   CXCXCXCX",
"CXCXCXCX  x ;.,.w.w.p.z.&.<XvXbXcXdXdXhXT :.h.i.i.h.>.T aXdXdXcXbXvX<X&.z.p.r.w.,.;.n   CXCXCXCX",
"CXCXCXCX  5 =.-.2.w.w.i.l.i.R.1X0X9X].7.i.p.r.2.2.i.p.i.7.Y.9X0X1XR.i.l.p.w.w.2.-.;.5   CXCXCXCX",
"CXCXCXCX  #  .*.<.2.w.w.w.p.h.p.e.i.i.i.p.r.w.r.w.w.r.i.i.i.i.i.p.h.p.w.w.w.w.<.-. .#   CXCXCXCX",
"CXCXCXCXCX  M =.-.<.2.w.w.w.w.w.r.r.r.r.r.w.0.[.[.0.r.r.r.r.r.r.r.w.w.w.w.2.<.-.=.M   CXCXCXCXCX",
"CXCXCXCXCX  - O.*.;.<.2.2.w.w.w.w.w.r.r.r.u.@ K K @ r.w.r.r.w.w.w.w.w.2.2.2.,.*.O.-   CXCXCXCXCX",
"CXCXCXCXCXCX  x =.*.;.2.2.2.2.w.w.w.w.w.w.w.@.q.q.@.r.w.w.w.w.w.2.2.2.2.2.<.*.=.x   CXCXCXCXCXCX",
"CXCXCXCXCXCX  O F O.*.;.<.<.2.2.2.2.2.2.w.w.w.w.w.w.w.2.w.2.2.2.2.2.2.2.,.=.o.Q +   CXCXCXCXCXCX",
"CXCXCXCXCXCXCX  - } o.*.;.<.<.<.<.2.2.2.2.2.w.2.2.w.2.2.2.2.2.2.2.<.<.;.*.o.} -   CXCXCXCXCXCXCX",
"CXCXCXCXCXCXCXCX  < } O.o.;.;.<.<.2.<.<.2.#.~ G { ~ #.2.<.2.<.<.<.<.=.o.o.| 1   CXCXCXCXCXCXCXCX",
"CXCXCXCXCXCXCXCXCX  , [ X.o.=.=.;.<.;.<.r.:.:.,.<.%.:.r.<.<.;.;.;.=.o.X.[ >   CXCXCXCXCXCXCXCXCX",
"CXCXCXCXCXCXCXCXCXCX  $ A X.o.o.=.;.;.;.;.<.<.<.<.<.<.;.;.=.;.=.o.} X.A $   CXCXCXCXCXCXCXCXCXCX",
"CXCXCXCXCXCXCXCXCXCXCX    6 G X.X.o.o.o.=.=.=.=.;.=.=.=.*.o.o.X.X.G 6 .   CXCXCXCXCXCXCXCXCXCXCX",
"CXCXCXCXCXCXCXCXCXCXCXCX    O 0 D | X.X.O.o.O.o.o.O.o.O.X.X.| D 0 O     CXCXCXCXCXCXCXCXCXCXCXCX",
"CXCXCXCXCXCXCXCXCXCXCXCXCXCX    . > k N F { | | | | { F N k > .     CXCXCXCXCXCXCXCXCXCXCXCXCXCX",
"CXCXCXCXCXCXCXCXCXCXCXCXCXCXCXCX        o $ & > > & $ o         CXCXCXCXCXCXCXCXCXCXCXCXCXCXCXCX",
"CXCXCXCXCXCXCXCXCXCXCXCXCXCXCXCXCXCXCXCX                CXCXCXCXCXCXCXCXCXCXCXCXCXCXCXCXCXCXCXCX",
"CXCXCXCXCXCXCXCXCXCXCXCXCXCXCXCXCXCXCXCXCXCXCXCXCXCXCXCXCXCXCXCXCXCXCXCXCXCXCXCXCXCXCXCXCXCXCXCX",
"CXCXCXCXCXCXCXCXCXCXCXCXCXCXCXCXCXCXCXCXCXCXCXCXCXCXCXCXCXCXCXCXCXCXCXCXCXCXCXCXCXCXCXCXCXCXCXCX",
"CXCXCXCXCXCXCXCXCXCXCXCXCXCXCXCXCXCXCXCXCXCXCXCXCXCXCXCXCXCXCXCXCXCXCXCXCXCXCXCXCXCXCXCXCXCXCXCX",
"CXCXCXCXCXCXCXCXCXCXCXCXCXCXCXCXCXCXCXCXCXCXCXCXCXCXCXCXCXCXCXCXCXCXCXCXCXCXCXCXCXCXCXCXCXCXCXCX",
"CXCXCXCXCXCXCXCXCXCXCXCXCXCXCXCXCXCXCXCXCXCXCXCXCXCXCXCXCXCXCXCXCXCXCXCXCXCXCXCXCXCXCXCXCXCXCXCX"
};
