/* XPM */
static char *_69f92e75c9b474bac0e98d9d2bc2a58[] = {
/* columns rows colors chars-per-pixel */
"48 48 256 2 ",
"   c #010000",
".  c #0A0400",
"X  c #0E0901",
"o  c #0F0A08",
"O  c #100500",
"+  c #140B00",
"@  c #180603",
"#  c #1D1D0A",
"$  c #1B1B1C",
"%  c #251400",
"&  c #281400",
"*  c #251D00",
"=  c #3A1E00",
"-  c #201414",
";  c #2E2402",
":  c #372501",
">  c #3C2200",
",  c #392D01",
"<  c #0B1D21",
"1  c #233439",
"2  c #442300",
"3  c #4F2B00",
"4  c #512D00",
"5  c #433500",
"6  c #4C3701",
"7  c #663D00",
"8  c #6F3C00",
"9  c #442D29",
"0  c #524101",
"q  c #644601",
"w  c #784000",
"e  c #765001",
"r  c #786100",
"t  c #073B49",
"y  c #4C585B",
"u  c #565B5C",
"i  c #5C5858",
"p  c #696A6A",
"a  c #716563",
"s  c #8B3400",
"d  c #893A00",
"f  c #884800",
"g  c #934F07",
"h  c #9D5B00",
"j  c #874812",
"k  c #B14F08",
"l  c #A65C00",
"z  c #B35200",
"x  c #A15218",
"c  c #826502",
"v  c #8F6A01",
"b  c #9E6100",
"n  c #906B01",
"m  c #977F1B",
"M  c #A96400",
"N  c #BE6600",
"B  c #AA7300",
"V  c #BF7600",
"C  c #925226",
"Z  c #985827",
"A  c #A05F3E",
"S  c #AB6824",
"D  c #BB6B21",
"F  c #AF742B",
"G  c #B2722C",
"H  c #A57A38",
"J  c #D14600",
"K  c #DC4700",
"L  c #D85908",
"P  c #C16B00",
"I  c #C37C00",
"U  c #C07500",
"Y  c #D37300",
"T  c #DE7C00",
"R  c #F46C08",
"E  c #E37E00",
"W  c #B28A02",
"Q  c #B88C01",
"!  c #B39300",
"~  c #BB9800",
"^  c #C68D00",
"/  c #CA8800",
"(  c #D68B00",
")  c #DC8000",
"_  c #C09501",
"`  c #CC9200",
"'  c #C29B01",
"]  c #CE9800",
"[  c #DA9200",
"{  c #DA9601",
"}  c #EA8500",
"|  c #F18600",
" . c #F98700",
".. c #F58E00",
"X. c #FB8C00",
"o. c #EE9301",
"O. c #FC9500",
"+. c #F59B00",
"@. c #FC9900",
"#. c #D8A100",
"$. c #DFAD01",
"%. c #DBB800",
"&. c #E4A204",
"*. c #EAA306",
"=. c #E0A903",
"-. c #E6A70A",
";. c #EEA408",
":. c #ECAA0A",
">. c #F5A300",
",. c #FCA400",
"<. c #F4AA01",
"1. c #FCAC01",
"2. c #E7BC07",
"3. c #F7B200",
"4. c #FDB400",
"5. c #FEBB00",
"6. c #EBAC10",
"7. c #F2AC10",
"8. c #C69132",
"9. c #DAB62D",
"0. c #DAA038",
"q. c #DFC002",
"w. c #E3C500",
"e. c #EFC300",
"r. c #EFCA00",
"t. c #F2C702",
"y. c #FFC402",
"u. c #F2CD00",
"i. c #FECB02",
"p. c #F6C60D",
"a. c #F0D601",
"s. c #FFD501",
"d. c #F5D800",
"f. c #FFDD02",
"g. c #FAD90A",
"h. c #F6C913",
"j. c #F9CD10",
"k. c #F4CF1D",
"l. c #FEDD14",
"z. c #FEDD19",
"x. c #F4D01A",
"c. c #F3E301",
"v. c #FFE202",
"b. c #FFED02",
"n. c #FFF101",
"m. c #FFE513",
"M. c #FFEB12",
"N. c #FEE41A",
"B. c #FEEC19",
"V. c #FFF514",
"C. c #FEF119",
"Z. c #FDDB23",
"A. c #FBDA2C",
"S. c #F9D72D",
"D. c #F3D733",
"F. c #F6DF3A",
"G. c #FFE521",
"H. c #FFEC21",
"J. c #FFE52B",
"K. c #FFEC29",
"L. c #FFF421",
"P. c #FFF529",
"I. c #FEE534",
"U. c #FFEC32",
"Y. c #FEEC3C",
"T. c #FFF432",
"R. c #FFF932",
"E. c #FFF43D",
"W. c #FFFA3D",
"Q. c #B18643",
"!. c #86817F",
"~. c #DCB040",
"^. c #C29668",
"/. c #CA9D70",
"(. c #DBAD67",
"). c #DBB269",
"_. c #DAA472",
"`. c #E6A976",
"'. c #F4DD45",
"]. c #F9DE41",
"[. c #F4DF49",
"{. c #FDE542",
"}. c #FEEB4B",
"|. c #FFF448",
" X c #FFFB48",
".X c #FFF047",
"XX c #FFEF54",
"oX c #FCE95A",
"OX c #FFF555",
"+X c #FFFC55",
"@X c #F0DB7D",
"#X c #FDEF6C",
"$X c #FFF562",
"%X c #FFFC63",
"&X c #F7EB77",
"*X c #FEF671",
"=X c #FFFD73",
"-X c #FDF27E",
";X c #116E85",
":X c #127188",
">X c #487A85",
",X c #23839B",
"<X c #539DB1",
"1X c #39ACC8",
"2X c #40B2CE",
"3X c #66BDD4",
"4X c #B7A58C",
"5X c #B5ADA7",
"6X c #CAB7AE",
"7X c #CDBEBB",
"8X c #FAEF83",
"9X c #FFF685",
"0X c #FFFE83",
"qX c #FDF48E",
"wX c #FAF294",
"eX c #FFFE94",
"rX c #FEF99F",
"tX c #FFFDA5",
"yX c #FDF7AB",
"uX c #FFFEA9",
"iX c #FBF7B1",
"pX c #FEFCB4",
"aX c #F9F6BA",
"sX c #FCF8BE",
"dX c #89B5C0",
"fX c #92C3CE",
"gX c #9BCFDC",
"hX c #93C4D0",
"jX c #ACD1DA",
"kX c #98DBEA",
"lX c #8CDDF1",
"zX c #AFDFEA",
"xX c #B0DFEA",
"cX c #9CE0EF",
"vX c #B3E9F9",
"bX c #CDCFC9",
"nX c #CED0CA",
"mX c #DFD1CF",
"MX c #C8CEDA",
"NX c #C7D1DC",
"BX c #DADDDB",
"VX c #D7DBD8",
"CX c #E0D3D0",
"ZX c #FDFCC4",
"AX c #FDFCCC",
"SX c #DADCE8",
"DX c #DDE2ED",
"FX c #C7E9F0",
"GX c #D7E3F5",
"HX c #DDEEFC",
"JX c #DBF3F9",
"KX c #ECF5F9",
"LX c #F7F5F1",
"PX c #FDFAF9",
"IX c #F0F6F9",
"UX c None",
/* pixels */
"UXUXUXUXUXUXUXUXUXUXUXUXUXUXUXUXUXUXUXUXUXUXUXUXUXUXUXUXUXUXUXUXUXUXUXUXUXUXUXUXUXUXUXUXUXUXUXUX",
"UXUXUXUXUXUXUXUXUXUXUXUXUXUXUXUXUXUXUXUXUXUXUXUXUXUXUXUXUXUXUXUXUXUXUXUXUXUXUXUXUXUXUXUXUXUXUXUX",
"UXUXUXUXUXUXUXUXUXUXUXUXUXUXUXUXUXUXUXUXUXUXUXUXUXUXUXUXUXUXUXUXUXUXUXUXUXUXUXUXUXUXUXUXUXUXUXUX",
"UXUXUXUXUXUXUXUXUXUXUXUXUXUXUXUXUXUXUXUXUXUXUXUXUXUXUXUXUXUXUXUXUXUXUXUXUXUXUXUXUXUXUXUXUXUXUXUX",
"UXUXUXUXUXUXUXUXUXUXUXUXUXUXUXUXUXUXUXUXUXUXUXUXUXUXUXUXUXUXUXUXUXUXUXUXUXUXUXUXUXUXUXUXUXUXUXUX",
"UXUXUXUXUXUXUXUXUXUXUXUXUXUXUXUXUXUXUXUX                UXUXUXUXUXUXUXUXUXUXUXUXUXUXUXUXUXUXUXUX",
"UXUXUXUXUXUXUXUXUXUXUXUXUXUXUXUXUX      o * , 5 5 , * o       UXUXUXUXUXUXUXUXUXUXUXUXUXUXUXUXUX",
"UXUXUXUXUXUXUXUXUXUXUXUXUXUX      ; r ! %.r.g.l.l.g.u.%.! r ;       UXUXUXUXUXUXUXUXUXUXUXUXUXUX",
"UXUXUXUXUXUXUXUXUXUXUXUXUX    0 ~ u.N.XX9XyXsXAXAXsXyX9XOXN.u.~ 0 .   UXUXUXUXUXUXUXUXUXUXUXUXUX",
"UXUXUXUXUXUXUXUXUXUXUX    , ' s.I.8XaXAXAXZXZXZXsXZXZXAXAXsX8XJ.s.~ ,     UXUXUXUXUXUXUXUXUXUXUX",
"UXUXUXUXUXUXUXUXUXUX    c i.N.&XiXpXuXtXtXtXuXuXtXuXtXtXtXyXpXiX&XN.i.c     UXUXUXUXUXUXUXUXUXUX",
"UXUXUXUXUXUXUXUXUX  X Q s.F.wXrXeXeXeXeXeXeXeXeXeXeXeXeXeXeXeXeXrXwXF.s.W X   UXUXUXUXUXUXUXUXUX",
"UXUXUXUXUXUXUXUX  X ~ s.[.qX9X-X0X0X0X0X0X0X0X0X0X0X0X0X0X0X0X0X-X9XqX[.s.~ X   UXUXUXUXUXUXUXUX",
"UXUXUXUXUXUXUX  . Q s.'.-X*X=X=X*X=X=X=X=X=X=X=X=X=X=X=X=X=X=X=X=X=X=X-X'.s.Q .   UXUXUXUXUXUXUX",
"UXUXUXUXUXUXUX  n i.D.#X$X$X$X%X%X%X%X%X%X%X%X%X%X%X%X%X%X%X%X%X%X%X$X$X#XD.i.v   UXUXUXUXUXUXUX",
"UXUXUXUXUXUX  6 y.x.oXXXXXOXOXOXOXOX+X+X+X+X+X+X+X+X+X+X+X+X+XOXOXOXOXOXXXoXx.y.6   UXUXUXUXUXUX",
"UXUXUXUXUX  . ] y.F.}..X|.|.|.|. X|.|. X X X X X X X X X X X X X X|.|.|..X}.].i.]     UXUXUXUXUX",
"UXUXUXUXUX  q 5.k.{.Y.Y.Y.Y.W.E.W.W.W.W.W.W.W.W.W.W.W.W.W.W.W.W.E.W..XE.E.Y.{.x.y.q   UXUXUXUXUX",
"UXUXUXUXUX  ^ y.S.I.U.U.U.T.T.T.T.T.R.R.R.R.R.R.R.R.R.R.R.T.T.T.U.U.U.U.U.U.I.S.y.^   UXUXUXUXUX",
"UXUXUXUX  : 3.h.A.J.J.K.K.K.K.P.P.P.P.P.P.P.P.P.P.P.P.P.P.P.P.P.P.P.P.K.K.J.J.A.p.3.:   UXUXUXUX",
"UXUXUXUX  e 5.h.Z.Z.G.G.G.H.H.H.C.L.L.L.L.L.C.L.L.L.L.L.L.L.L.L.H.H.H.H.G.G.G.Z.h.y.e   UXUXUXUX",
"UXUXUXUX  B 5.h.z.z.z.N.N.B.N.B.B.B.B.C.C.C.C.C.C.C.V.C.C.B.B.B.B.B.N.N.N.N.z.z.h.5.B   UXUXUXUX",
"UXUXUXUX  / 5.h.l.m.m.m.m.M.M.B.C.V.V.V.V.V.V.C.V.V.V.V.V.V.V.V.V.V.B.m.m.m.m.l.j.5.^   UXUXUXUX",
"UXUXUXUXX [ 4.1.,.*.;.7.6.-.*.*.*.{ { :.6.:.:.y.y.:.:.6.-.-.*.&.[ *.-.6.7.;.;.1.1.5.[ . UXUXUXUX",
"UXUXUXUXX [ 4.1.o.s C mXjX:XO O   i 9 t 3XA z y.y.z A 3Xt O . - a @ ;XjXCXC s o.1.5.[ X UXUXUXUX",
"UXUXUXUX. ( 4.5.5.l j VXJX2X< $ $ BX!.:XcXZ [ m.v.[ Z kX,Xo $ u LX1 1XJXBXj l 5.4.4.( . UXUXUXUX",
"UXUXUXUX  I 1.4.i.$.d 4XKXzX<Xy p u >XlX5XM s.f.v.s.M 5XlX>Xu p y <XxXKX4Xd =.i.5.4.I   UXUXUXUX",
"UXUXUXUX  b 1.3.y.f.` x bXKXFXgXdXfXvXNXF e.v.s.g.f.e.G NXvXhXdXgXFXKXbXx ` f.y.3.1.b   UXUXUXUX",
"UXUXUXUX  7 1.<.4.i.b.#.D 6XDXHXHXGX7X8.r.v.i.y.y.i.v.r.8.7XGXHXHXDX6XD #.b.i.5.<.1.7   UXUXUXUX",
"UXUXUXUX  % o.>.4.5.i.n.d.&.0.(.).~.2.v.f.i.y.y.y.y.i.f.g.2.~.).(.0.&.d.n.i.5.4.<.o.%   UXUXUXUX",
"UXUXUXUXUX  M ,.<.4.5.5.s.b.v.v.f.v.f.i.i.y.9.@X@X9.y.i.i.f.v.v.v.b.b.f.y.5.4.<.,.M   UXUXUXUXUX",
"UXUXUXUXUX  > O.>.1.5.5.5.5.y.y.y.y.y.i.i.i.# m m # i.i.i.y.y.y.y.y.5.4.y.4.4.>.@.>   UXUXUXUXUX",
"UXUXUXUXUXUX  h ,.>.1.5.5.5.5.y.5.y.y.i.i.i.%.t.t.w.i.y.y.i.y.y.5.y.5.5.5.4.>.,.h   UXUXUXUXUXUX",
"UXUXUXUXUXUX  + T @.>.1.4.4.5.5.5.y.5.1.1.,.1.1.1.1.1.1.1.5.5.5.5.5.5.4.1.>.+.T +   UXUXUXUXUXUX",
"UXUXUXUXUXUXUX  > ..+.>.1.4.4.4.4.5.,.S ^._.`.`.`.`._./.G ,.5.5.5.5.1.1.>.@...>   UXUXUXUXUXUXUX",
"UXUXUXUXUXUXUXUX  3 ..@.>.1.1.1.4.4.5.H MXLXPXPXPXPXLXSXQ.4.4.4.1.1.1.>.+.O.4   UXUXUXUXUXUXUXUX",
"UXUXUXUXUXUXUXUXUX  2 } @.+.,.,.1.1.5.=.g k L R R L k g $.5.4.1.1.,.+.@.} 2   UXUXUXUXUXUXUXUXUX",
"UXUXUXUXUXUXUXUXUXUX  & P O.O.+.,.1.,.y.q.V J K K J V w.y.1.,.,.+.O.O.P &   UXUXUXUXUXUXUXUXUXUX",
"UXUXUXUXUXUXUXUXUXUXUX    8 E O.@.+.+.+.5.v.c.a.a.c.v.4.+.+.@.@.O.E 8 .   UXUXUXUXUXUXUXUXUXUXUX",
"UXUXUXUXUXUXUXUXUXUXUXUX    + w Y X.O.O.O.+.,.4.4.<.O.O.O.O.X.Y w +     UXUXUXUXUXUXUXUXUXUXUXUX",
"UXUXUXUXUXUXUXUXUXUXUXUXUXUX    . 2 f N T |  .X.X. .| T N f 2 .     UXUXUXUXUXUXUXUXUXUXUXUXUXUX",
"UXUXUXUXUXUXUXUXUXUXUXUXUXUXUXUX        O & = 2 2 = & O         UXUXUXUXUXUXUXUXUXUXUXUXUXUXUXUX",
"UXUXUXUXUXUXUXUXUXUXUXUXUXUXUXUXUXUXUXUX                UXUXUXUXUXUXUXUXUXUXUXUXUXUXUXUXUXUXUXUX",
"UXUXUXUXUXUXUXUXUXUXUXUXUXUXUXUXUXUXUXUXUXUXUXUXUXUXUXUXUXUXUXUXUXUXUXUXUXUXUXUXUXUXUXUXUXUXUXUX",
"UXUXUXUXUXUXUXUXUXUXUXUXUXUXUXUXUXUXUXUXUXUXUXUXUXUXUXUXUXUXUXUXUXUXUXUXUXUXUXUXUXUXUXUXUXUXUXUX",
"UXUXUXUXUXUXUXUXUXUXUXUXUXUXUXUXUXUXUXUXUXUXUXUXUXUXUXUXUXUXUXUXUXUXUXUXUXUXUXUXUXUXUXUXUXUXUXUX",
"UXUXUXUXUXUXUXUXUXUXUXUXUXUXUXUXUXUXUXUXUXUXUXUXUXUXUXUXUXUXUXUXUXUXUXUXUXUXUXUXUXUXUXUXUXUXUXUX",
"UXUXUXUXUXUXUXUXUXUXUXUXUXUXUXUXUXUXUXUXUXUXUXUXUXUXUXUXUXUXUXUXUXUXUXUXUXUXUXUXUXUXUXUXUXUXUXUX"
};
