/* XPM */
static char *a36060b4087d4a04d63af349a1ddd707[] = {
/* columns rows colors chars-per-pixel */
"24 46 53 1 ",
"  c black",
". c #050000",
"X c #0B0000",
"o c #0E0000",
"O c #120000",
"+ c #150000",
"@ c #180000",
"# c #1D0000",
"$ c #200000",
"% c #270000",
"& c #2A0000",
"* c #2C0000",
"= c #300000",
"- c #350000",
"; c #3B0000",
": c #3E0000",
"> c #440000",
", c #4B0000",
"< c #4D0000",
"1 c #540000",
"2 c #5B0000",
"3 c #5F0000",
"4 c #610000",
"5 c #660000",
"6 c #690000",
"7 c #6D0000",
"8 c #710000",
"9 c #740000",
"0 c #7A0000",
"q c #7E0000",
"w c #800000",
"e c #870000",
"r c #8B0000",
"t c #8D0000",
"y c #950000",
"u c #9A0000",
"i c #9D0000",
"p c #A00000",
"a c #A40000",
"s c #B10000",
"d c #B50000",
"f c #BE0000",
"g c #C40000",
"h c #C80000",
"j c #CF0000",
"k c #D50000",
"l c #DE0000",
"z c #E60000",
"x c #EF0000",
"c c #F10000",
"v c #F70000",
"b c #F90000",
"n c red",
/* pixels */
"Xqbnnnnnnnnnnnnnnnnnnbq+",
";+rbnnnnnnnnnnnnnnnnnt%i",
"4:Oebnnnnnnnnnnnnnnbt$an",
"44:Oebnnnnnnnnnnnnbr$ann",
"433:owvnnnnnnnnnnbr#annn",
"3434:oqvnnnnnnnnbr#pnnnn",
"43434;O2q000000q4$pnnnnn",
"343434%          5nnnnnn",
"434334*          8nnnnnn",
"343444*          8nnnnnn",
"434334*          9nnnnnn",
"343444*          9nnnnnn",
"434344*          9nnnnnn",
"343434*          9nnnnnn",
"434344*          9nnnnnn",
"343434*          9nnnnnn",
"343442#          <cnnnnn",
"43442&            6cnnnn",
"3432&  O++++++++O  7cnnn",
"343& o4gkkkkjkkkh6O.8cnn",
"43&.>dbnnnnnnnnnnbf,X8vn",
"2*=ixnnnnnnnnnnnnnncp-0v",
"=7znnnbnnnnnnnnnnnnnnz99",
"8>svnnnnnnnnnnnnnnnnbd>*",
"v0O2hnnnnnnnnnnnnnnj3o&3",
"nv0.@9lnnnnnnnnnnzq# *34",
"nnv9X &wyyyyyyyye=  *343",
"nnnv9.             &3443",
"nnnnv9.           *34434",
"nnnnnc1          $343443",
"nnnnnn9          *334343",
"nnnnnn9          &443433",
"nnnnnn9          *434343",
"nnnnnn9          *443434",
"nnnnnn9          *434343",
"nnnnnn9          *443434",
"nnnnnn9          *434343",
"nnnnnn9          *443434",
"nnnnnn4          %334343",
"nnnnby+3q000000q4O-43434",
"nnnnu+qvnnnnnnnnbtO;3343",
"nnni@wvnnnnnnnnnnbrO;334",
"nbp#evnnnnnnnnnnnnbtO;33",
"na#ebnnnnnnnnnnnnnnbtO:4",
"i%rbnnnnnnnnnnnnnnnnnt+;",
"+qbnnnnnnnnnnnnnnnnnnbqX"
};
