/* XPM */
static char *f32d3caf96244eb4c879444881bbbe78[] = {
/* columns rows colors chars-per-pixel */
"24 46 51 1 ",
"  c black",
". c #060000",
"X c #070000",
"o c #0D0000",
"O c #120000",
"+ c #150000",
"@ c #1B0000",
"# c #1C0000",
"$ c #230000",
"% c #250000",
"& c #290000",
"* c #2F0000",
"= c #330000",
"- c #340000",
"; c #380000",
": c #3C0000",
"> c #420000",
", c #450000",
"< c #4A0000",
"1 c #530000",
"2 c #590000",
"3 c #5D0000",
"4 c #600000",
"5 c #670000",
"6 c #690000",
"7 c #6C0000",
"8 c #730000",
"9 c #740000",
"0 c #790000",
"q c #7D0000",
"w c #810000",
"e c #870000",
"r c #990000",
"t c #A70000",
"y c #AE0000",
"u c #B00000",
"i c #B40000",
"p c #BA0000",
"a c #BB0000",
"s c #C40000",
"d c #C80000",
"f c #CC0000",
"g c #D30000",
"h c #D70000",
"j c #E10000",
"k c #E60000",
"l c #EA0000",
"z c #F00000",
"x c #F40000",
"c c #FA0000",
"v c red",
/* pixels */
"#=44444444444444444444=@",
"u&-444444444444444444;&y",
"vp%-4444444444444444;%pv",
"vvp$-44444444444444;%ivv",
"vvvi$=334444444444-%ivvv",
"vvvvi$=4434444444-$ivvvv",
"vvvvvi#&========&$ivvvvv",
"vvvvvv8          9vvvvvv",
"vvvvvvq          qvvvvvv",
"vvvvvvq          qvvvvvv",
"vvvvvvq          qvvvvvv",
"vvvvvvq          qvvvvvv",
"vvvvvvw          qvvvvvv",
"vvvvvvq          qvvvvvv",
"vvvvvvq          qvvvvvv",
"vvvvvvq          qvvvvvv",
"vvvvvz1          1zvvvvv",
"vvvvz6.          .7zvvvv",
"vvvz8  O@+@+@+@+O  8zvvv",
"vvx9 O6dhghhhghgf8+ 8xvv",
"vx9o1pcvvvvvvvvvvvs1o8xv",
"zq;tzvvvvvvvvvvvvvvxt:qx",
"0wlvvvvvvvvvvvvvvvvvvlw9",
"*<pxvvvvvvvvvvvvvvvvcp18",
"3*O4gvvvvvvvvvvvvvvg5@0x",
"42* #qjvvvvvvvvvvke#.0xv",
"443*  *errrrrrrre; .0xvv",
"4443*             .0xvvv",
"44443*           .9xvvvv",
"444443%          2xvvvvv",
"444444=          wvvvvvv",
"444444*          qvvvvvv",
"444444=          wvvvvvv",
"444444*          qvvvvvv",
"444444*          qvvvvvv",
"444444*          qvvvvvv",
"444444*          qvvvvvv",
"444444-          wvvvvvv",
"444444*          7vvvvvc",
"44445:.&==*==*==%@tvvvvv",
"4444>o-4444445444-#yvvvv",
"444>o-344344444444;#yvvv",
"44>o-44444444444444;$uvv",
"4,O;4444444444444444-%pv",
",O;444444444444444444;%y",
"o-44444444444444444444-@"
};
