/* XPM */
static char *_5a7bb6ace774d4acb8c33515795764d[] = {
/* columns rows colors chars-per-pixel */
"24 46 56 1 ",
"  c black",
". c #060000",
"X c #0B0000",
"o c #110000",
"O c #150000",
"+ c #190000",
"@ c #1C0000",
"# c #210000",
"$ c #270000",
"% c #2B0000",
"& c #2D0000",
"* c #330000",
"= c #360000",
"- c #3A0000",
"; c #420000",
": c #440000",
"> c #4E0000",
", c #530000",
"< c #5B0000",
"1 c #5D0000",
"2 c #610000",
"3 c #650000",
"4 c #6B0000",
"5 c #6F0000",
"6 c #730000",
"7 c #760000",
"8 c #7B0000",
"9 c #7D0000",
"0 c #810000",
"q c #870000",
"w c #8A0000",
"e c #8E0000",
"r c #910000",
"t c #950000",
"y c #9A0000",
"u c #A30000",
"i c #A70000",
"p c #AB0000",
"a c #AF0000",
"s c #B30000",
"d c #B70000",
"f c #B90000",
"g c #BD0000",
"h c #C40000",
"j c #C80000",
"k c #CC0000",
"l c #D30000",
"z c #D70000",
"x c #E10000",
"c c #E60000",
"v c #EA0000",
"b c #F00000",
"n c #F30000",
"m c #F40000",
"M c #FA0000",
"N c red",
/* pixels */
"#wNNNNNNNNNNNNNNNNNNNMeo",
"a*rNNNNNNNNNNNNNNNNNNy@;",
"Nf&rMNNNNNNNNNNNNNNNy@:2",
"NNd%eMNNNNNNNNNNNNMt+:21",
"NNNd%wMNNNNNNNNNNNt+:222",
"NNNNs$qMNNNNNNNNMt+;2221",
"NNNNNs$3000000004+;21212",
"NNNNNN6          %222222",
"NNNNNN9          *221212",
"NNNNNN9          &212222",
"NNNNNN0          &222212",
"NNNNNN9          *222122",
"NNNNNN9          *212222",
"NNNNNN9          &221221",
"NNNNNN9          &222221",
"NNNNNN9          *211222",
"NNNNNn,          #121222",
"NNNNn4.           %<2221",
"NNNn5  oO+++O+++o  %1212",
"NNm7 o4jzlzzzlzlk6O %122",
"Nm7X>gMNNNNNNNNNNNh,X%12",
"n8-unNNNNNNNNNNNNNNmi-&1",
"89vNNNNNNNNNNNNNNNNNNv9*",
"7>dMNNNNNNNNNNNNNNNNMf,6",
"m8O2kNNNNNNNNNNNNNNl3+8m",
"Nm8.@0xNNNNNNNNNNcq@.8mN",
"NNm8. &wyyyyyyyyw= .8mNN",
"NNNm7.            .8mNNN",
"NNNNm7X          .7mNNNN",
"NNNNNm<          <mNNNNN",
"NNNNNN9          0NNNNNN",
"NNNNNN9          9NNNNNN",
"NNNNNN9          0NNNNNN",
"NNNNNN9          9NNNNNN",
"NNNNNN9          9NNNNNN",
"NNNNNN9          9NNNNNN",
"NNNNNN9          9NNNNNN",
"NNNNNN9          9NNNNNN",
"NNNNNN5          5NNNNNN",
"NNNNNi#3000000004#iNNNNM",
"NNNNp#wMNNNNNNNNNr$pNNNN",
"NNNa$wMNNNNNNNNNNMt$aNNN",
"NNs$eMNNNNNNNNNNNNNt%sNN",
"Nd%rMNNNNNNNNNNNNNNMt%dN",
"a*tMNNNNNNNNNNNNNNNNNt*a",
"@wNNNNNNNNNNNNNNNNNNNMw#"
};
