/* XPM */
static char *_ee2fa3ee402419ae1c6752e36a80faa[] = {
/* columns rows colors chars-per-pixel */
"120 72 66 1 ",
"  c #7D2738",
". c #7B2A3B",
"X c #7C2839",
"o c #7D2839",
"O c #792D3C",
"+ c #782D3D",
"@ c #782E3D",
"# c #74313F",
"$ c #76303E",
"% c #6F3843",
"& c #6E3943",
"* c #6D3B45",
"= c #6E3A45",
"- c #6E3B45",
"; c #6B3D46",
": c #6C3E47",
"> c #6A3F48",
", c #743340",
"< c #703642",
"1 c #703742",
"2 c #713743",
"3 c #5F4B4F",
"4 c #5E4D50",
"5 c #5E4E51",
"6 c #5D4E52",
"7 c #575455",
"8 c #575555",
"9 c #575656",
"0 c gray34",
"q c #5B5052",
"w c #5B5153",
"e c #5A5253",
"r c #5C5053",
"t c #595254",
"y c #585354",
"u c #5B5254",
"i c #585556",
"p c #674149",
"a c #67434A",
"s c #66444B",
"d c #63454C",
"f c #63464C",
"g c #65464C",
"h c #684048",
"j c #6A4048",
"k c #684249",
"l c #63484D",
"z c #61494E",
"x c #604B50",
"c c #604C50",
"v c #8F112B",
"b c #8F132C",
"n c #8A172E",
"m c #8C152D",
"M c #8E142C",
"N c #8A192F",
"B c #91112B",
"V c #861D33",
"C c #851E33",
"Z c #841F34",
"A c #881A30",
"S c #881B31",
"D c #822135",
"F c #832135",
"G c #842034",
"H c #802537",
/* pixels */
"000000000000000000000000000000000000000000000000000000000000000000000000000000000000000000000000000000000000000000000000",
"000000000000000000000000000000000000000000000000000000000000000000000000000000000000000000000000000000000000000000000000",
"000000000000000000000000000000000000000000000000000000000000000000000000000000000000000000000000000000000000000000000000",
"000000000000000000000000000000000000000000000000000000000000000000000000000000000000000000000000000000000000000000000000",
"000000000000000000000000000000000000000000000000000000000000000000000000000000000000000000000000000000000000000000000000",
"000000000000000000000000000000000000000000000000000000000000000000000000000000000000000000000000000000000000000000000000",
"00000000000000000000000zggzgfz0000000y4gddddg000000003&+ GFX2hy0000000000dzdddz0000000qgddddr000000000000000000000000000",
"00000000000000000000000SBBBBBBz0000000CBBBBBBy00000;NBBBBBBBBBB 40000000zBBBBBA0000000&BBBBB$000000000000000000000000000",
"00000000000000000000000zBBBBBBC000000>BBBBBB:0000yXBBBBBBBBBBBBBB>000000zBBBBvZ0000000&BBBBB<000000000000000000000000000",
"000000000000000000000000$BBBBBBh00000ABBBBBZy000yABBBBBBBBBBBBBBBB<000003BBBBvZy000000:BBBBB#000000000000000000000000000",
"000000000000000000000000qnBBBBBm0000&BBBBBBz0000 BBBBBBBBCNBBBBBBBBd0000zBBBBBZ0000000&BBBBB<000000000000000000000000000",
"0000000000000000000000000;BBBBBB&00qNBBBBB$0000gBBBBBBv;0004XBBBBBBA00003BBBBBZ7000000:BBBBB,000000000000000000000000000",
"00000000000000000000000000GBBBBBBy02BBBBBmy0000XBBBBBBd000000+BBBBBBh000zBBBBBCy000000&BBBBB,000000000000000000000000000",
"00000000000000000000000000zBBBBBB,yBBBBBB>00004BBBBBB20000000ynBBBBB 0003BBBBBZ0000000:BBBBB,000000000000000000000000000",
"000000000000000000000000000+BBBBBBBBBBBBF00000hBBBBBv4000000002BBBBBnq00zBBBBBZ7000000:BBBBB#000000000000000000000000000",
"000000000000000000000000000qmBBBBBBBBBBBz00000&BBBBBFy000000004BBBBBBy003BBBBvZ7000000&BBBBB<000000000000000000000000000",
"0000000000000000000000000000;vBBBBBBBBB,000000,BBBBB 7000000004BBBBBvz00zBBBBBZ0000000&BBBBB#000000000000000000000000000",
"00000000000000000000000000000ZBBBBBBBBmy000000 BBBBB<000000000qnBBBBB4003BBBBBZ0000000;BBBBB#000000000000000000000000000",
"00000000000000000000000000000zBBBBBBBB;0000000 BBBBB,000000000ynBBBBBg00zBBBBBC7000000;BBBBB%000000000000000000000000000",
"000000000000000000000000000000+BBBBBBG00000000&BBBBBC0000000004BBBBBn400xBBBBBC0000000&BBBBm#000000000000000000000000000",
"000000000000000000000000000000qnBBBBBz00000000:BBBBBZ000000000dBBBBBv400zBBBBBF0000000&BBBBB$000000000000000000000000000",
"0000000000000000000000000000000 BBBBBy00000000gBBBBBBs00000000 BBBBBD0003BBBBBb0000000;BBBBB<000000000000000000000000000",
"0000000000000000000000000000000 BBBBby00000000ymBBBBBF0000000xBBBBBB$000ymBBBBBz000000XBBBBB$000000000000000000000000000",
"0000000000000000000000000000000XBBBBBr000000000,BBBBBB+000004nBBBBBB4000ynBBBBB 00000gBBBBBBg000000000000000000000000000",
"0000000000000000000000000000000 BBBBmy000000000rBBBBBBBZ>442BBBBBBB$00000OBBBBBBNgc4$BBBBBBmr000000000000000000000000000",
"0000000000000000000000000000000 BBBBBr0000000000>BBBBBBBBBBBBBBBBBMe00000rBBBBBBBBBBBBBBBBB#0000000000000000000000000000",
"0000000000000000000000000000000 BBBBBr00000000000;BBBBBBBBBBBBBBBBc0000000%BBBBBBBBBBBBBBBm00000000000000000000000000000",
"0000000000000000000000000000000 BBBBmr000000000000hBBBBBBBBBBBBBHq000000000;BBBBBBBBBBBBBXq00000000000000000000000000000",
"0000000000000000000000000000000.BBBBmr0000000000000r&ABBBBBBBB d000000000000q1BBBBBBBBBXz0000000000000000000000000000000",
"000000000000000000000000000000000000000000000000000000rzdssdx0000000000000000004gaghhzr000000000000000000000000000000000",
"000000000000000000000000000000000000000000000000000000000000000000000000000000000000000000000000000000000000000000000000",
"000000000000000000000000000000000000000000000000000000000000000000000000000000000000000000000000000000000000000000000000",
"000000000000000000000000000000000000000000000000000000000000000000000000000000000000000000000000000000000000000000000000",
"000000000000000000000000000000000000000000000000000000000000000000000000000000000000000000000000000000000000000000000000",
"000000000000000000000000000000000000000000000000000000000000000000000000000000000000000000000000000000000000000000000000",
"000000000000000000000000000000000000000000000000000000000000000000000000000000000000000000000000000000000000000000000000",
"000000000000000000000000000000000000000000000000000000000000000000000000000000000000000000000000000000000000000000000000",
"000000000000000000000000000000000000000000000000000000000000000000000000000000000000000000000000000000000000000000000000",
"000000000000000000000000000000000000000000000000000000000000000000000000000000000000000000000000000000000000000000000000",
"000000000000000000000000000000000000000000000000000000000000000000000000000000000000000000000000000000000000000000000000",
"000000000000000000000000000000000000000000000000000000000000000000000000000000000000000000000000000000000000000000000000",
"000000000000000000000000000000000000000000000000000000000000000000000000000000000000000000000000000000000000000000000000",
"000000000000000000000000zgddzg0000000gzgffg0000000zdggdz004dfgdzddddzgfq0000zgdzddf0000000egddgz000000000000000000000000",
"000000000000000000000004BBBBBBg00000cBBBBBBf00000dBBBBBBq0&bBBBBBBBBBBB$000zBBBBBBv$000000%BBBBB400000000000000000000000",
"000000000000000000000000FBBBBB<00000>BBBBBB100000;BBBBB 00&BBBBBBBBBBBb$000dBBBBBBBB400000:BBBBby00000000000000000000000",
"000000000000000000000000,BBBBBX00000XBBBBBvF00000+BBBBB%00;BBBBBBBBBBBB$0003BBBBBBBBC00000&BBBBby00000000000000000000000",
"000000000000000000000000gBBBBBnq000qmBBBBBBvq0000NBBBBBz00;BBBBBBBBBBBB<000zBBBBBBBBB%0000;BBBBbc00000000000000000000000",
"000000000000000000000000ymBBBBB4000zBBBBBBBBs0004BBBBBmy0000qqnBBBBm4000000xBBBBBBBBBM4000&bBBBby00000000000000000000000",
"0000000000000000000000000XBBBBBs000<BBBBBBBB#000hBBBBB.000000qNvBBBbr000000zBBBBBBBBBBX000;BBBBbr00000000000000000000000",
"0000000000000000000000000&BBBBB$000DBBBBBBBBF000$BBBBB;0000007NBBBBbq000000zBBBBBBBBBBBh00;BBBBbq00000000000000000000000",
"0000000000000000000000000zBBBBBF00qnBBBBBBBBMq00FBBBBv4000000qnBBBBbq000000zBBBBBBBBBBBmr02BBBBbq00000000000000000000000",
"0000000000000000000000000qnBBBBbq0fBBBBBBBBBBf0qvBBBBA0000000qnBBBBb0000000zBBBBB;NBBBBB+0jBBBBby00000000000000000000000",
"00000000000000000000000000XBBBBBf0$BBBBO BBBB,0dBBBBB$0000000qNvBBBbr000000cBBBBBzhBBBBBBz;BBBBbr00000000000000000000000",
"00000000000000000000000000hBBBBB<0CBBBBg%BBBBZ0<BBBBBg00000000NBBBBbr000000zBBBBBg0GBBBBBG<BBBBbq00000000000000000000000",
"00000000000000000000000000rvBBBB.4BBBBvrzBBBBb4 BBBBvq00000000nBBBBBq000000zBBBBBg0xBBBBBBBBBBBbr00000000000000000000000",
"000000000000000000000000000NBBBBC;BBBBZ0qNBBBB;NBBBBF00000000qnBBBBmq000000cBBBBBg00$BBBBBBBBBBbr00000000000000000000000",
"000000000000000000000000000$BBBBBBBBBB100.BBBBBBBBBB200000000qAvBBBmr000000zBBBBBg00yABBBBBBBBBby00000000000000000000000",
"000000000000000000000000000gBBBBBBMBBBg00;BBBNBBBBBBz00000000qNBBBBBr000000xBBBBBg000hBBBBBBBBBbr00000000000000000000000",
"000000000000000000000000000qmBBBBvBBBvq00cBBBBNBBBBmy00000000qnBBBBmr000000zBBBBBg0000 BBBBBBBBBr00000000000000000000000",
"0000000000000000000000000000FBBBBBBBBF0000NBBBBBBBB 0000000000nBBBBm0000000zBBBBBg0000rBBBBBBBBmq00000000000000000000000",
"0000000000000000000000000000<BBBBBBBB<0000+BBBBBBBB;0000004hs>vvBBBB&gh4000zBBBBBg00000;BBBBBBBmy00000000000000000000000",
"0000000000000000000000000000zBBBBBBBBz0000gBBBBBBBBx000000&BvBBBBBBBBBB$000xBBBBBs000000SBBBBBBBr00000000000000000000000",
"0000000000000000000000000000qNBBBBBBm00000ybBBBBBBm0000000&BBBBBBBBBBBB,000zBBBBBg000000gBBBBBBmr00000000000000000000000",
"00000000000000000000000000000XBBBBBB 000000XBBBBBBX0000000;BBBBBBBBBBBB2000zBBBBBg0000000$BBBBBBr00000000000000000000000",
"00000000000000000000000000000;BBBBBB;000000&BBBBBBs0000000&BBBBBBBBBBBB&0004BBBBBd0000000yNBBBBby00000000000000000000000",
"000000000000000000000000000000000000000000000000000000000000000000000000000000000000000000000000000000000000000000000000",
"000000000000000000000000000000000000000000000000000000000000000000000000000000000000000000000000000000000000000000000000",
"000000000000000000000000000000000000000000000000000000000000000000000000000000000000000000000000000000000000000000000000",
"000000000000000000000000000000000000000000000000000000000000000000000000000000000000000000000000000000000000000000000000",
"000000000000000000000000000000000000000000000000000000000000000000000000000000000000000000000000000000000000000000000000",
"000000000000000000000000000000000000000000000000000000000000000000000000000000000000000000000000000000000000000000000000",
"000000000000000000000000000000000000000000000000000000000000000000000000000000000000000000000000000000000000000000000000"
};
