/* XPM */
static char *_a5ba368fee841cbc6502fbaa46809cb[] = {
/* columns rows colors chars-per-pixel */
"48 48 248 2 ",
"   c #010000",
".  c #090500",
"X  c #0E0A01",
"o  c #01060C",
"O  c #100700",
"+  c #140B00",
"@  c #1D1D0A",
"#  c #161716",
"$  c #251400",
"%  c #281400",
"&  c #251D00",
"*  c #3A1E00",
"=  c #2E2402",
"-  c #372501",
";  c #3C2200",
":  c #392D01",
">  c #202427",
",  c #2E2825",
"<  c #293038",
"1  c #491F00",
"2  c #442300",
"3  c #4D2300",
"4  c #4F2B00",
"5  c #542B00",
"6  c #433500",
"7  c #4C3701",
"8  c #782A00",
"9  c #663D00",
"0  c #6F3C00",
"q  c #524101",
"w  c #644601",
"e  c #784000",
"r  c #765001",
"t  c #776000",
"y  c #786100",
"u  c #375A64",
"i  c #3C5F69",
"p  c #5B5350",
"a  c #556E75",
"s  c #74747A",
"d  c #883A00",
"f  c #874800",
"g  c #884800",
"h  c #9D5B00",
"j  c #AC5B02",
"k  c #A65714",
"l  c #A65814",
"z  c #826502",
"x  c #8F6A01",
"c  c #9E6100",
"v  c #906B01",
"b  c #A96500",
"n  c #BD6500",
"m  c #B86C0B",
"M  c #AA7300",
"N  c #B97100",
"B  c #BC7801",
"V  c #C16B00",
"C  c #C37C00",
"Z  c #D37300",
"A  c #D47A00",
"S  c #DE7B00",
"D  c #E37E00",
"F  c #A6754C",
"G  c #B17C4B",
"H  c #817C79",
"J  c #97801B",
"K  c #B28A02",
"L  c #B88C01",
"P  c #B39300",
"I  c #BB9700",
"U  c #BB9800",
"Y  c #CB8602",
"T  c #C68D00",
"R  c #CC8803",
"E  c #C5810B",
"W  c #DC8000",
"Q  c #D68B00",
"!  c #DF8800",
"~  c #D28B08",
"^  c #C09501",
"/  c #CE9700",
"(  c #C29B01",
")  c #CE9800",
"_  c #DB9200",
"`  c #EA8500",
"'  c #F18300",
"]  c #F58E00",
"[  c #FB8D00",
"{  c #ED9300",
"}  c #FD9600",
"|  c #F59A00",
" . c #FB9A00",
".. c #DBB700",
"X. c #DDBA00",
"o. c #E5A200",
"O. c #F5A300",
"+. c #FCA400",
"@. c #F6AB00",
"#. c #FDAC00",
"$. c #E5B502",
"%. c #EAB500",
"&. c #F7B200",
"*. c #FEB400",
"=. c #FFBC00",
"-. c #F9B30E",
";. c #C28827",
":. c #D1A227",
">. c #D7AA2A",
",. c #DAB62D",
"<. c #F7A82E",
"1. c #E6C00E",
"2. c #F2C200",
"3. c #FEC301",
"4. c #F3CD01",
"5. c #FECC01",
"6. c #F6C60D",
"7. c #FAC70B",
"8. c #F9CA0E",
"9. c #FFD501",
"0. c #FDDC03",
"q. c #F0D60F",
"w. c #FFD30D",
"e. c #FDDA0B",
"r. c #F6C913",
"t. c #F4CF1D",
"y. c #F0D610",
"u. c #FDD312",
"i. c #F0D916",
"p. c #FFDC13",
"a. c #F4D01A",
"s. c #FEDC1A",
"d. c #FEE300",
"f. c #FEEB02",
"g. c #FFE40C",
"h. c #FFEC09",
"j. c #FFF102",
"k. c #FEE215",
"l. c #FFEC13",
"z. c #FFE419",
"x. c #FCEA1A",
"c. c #FEF31C",
"v. c #FFF91D",
"b. c #EAC52A",
"n. c #FDDB23",
"m. c #F9D72D",
"M. c #FBDA2C",
"N. c #F3D733",
"B. c #F6DF3A",
"V. c #FFE521",
"C. c #FEEC21",
"Z. c #FFE52B",
"A. c #FFEC29",
"S. c #FEF525",
"D. c #FFFB22",
"F. c #FEF229",
"G. c #FCFA2B",
"H. c #FEE534",
"J. c #FFEC32",
"K. c #FEEC3C",
"L. c #FFF432",
"P. c #FEFB34",
"I. c #FFF43D",
"U. c #FFFA3D",
"Y. c #A6825B",
"T. c #C18741",
"R. c #D8AE5A",
"E. c #CD9E62",
"W. c #D1BE7F",
"Q. c #F4DD45",
"!. c #F9DE41",
"~. c #F4DF49",
"^. c #FDE542",
"/. c #FEEB4B",
"(. c #FFF047",
"). c #FFF448",
"_. c #FFFB48",
"`. c #FFEF54",
"'. c #FCE95A",
"]. c #FFF555",
"[. c #FFFC55",
"{. c #F0DB7D",
"}. c #FDEF6C",
"|. c #FFF562",
" X c #FFFC63",
".X c #F7EB77",
"XX c #FEF671",
"oX c #FFFD73",
"OX c #FDF27E",
"+X c #03799E",
"@X c #5C7F8A",
"#X c #278094",
"$X c #288194",
"%X c #138AAC",
"&X c #3F9BB2",
"*X c #668A94",
"=X c #4E9AAB",
"-X c #7CD3E7",
";X c #8D8F8F",
":X c #A5B29A",
">X c #AAA6A3",
",X c #D4C39B",
"<X c #FAEF83",
"1X c #FFF685",
"2X c #FFFE83",
"3X c #FDF48E",
"4X c #FAF294",
"5X c #FFFE94",
"6X c #FEF99F",
"7X c #CFC8BB",
"8X c #FFFDA5",
"9X c #FDF7AB",
"0X c #FFFEA9",
"qX c #FBF7B1",
"wX c #FEFCB4",
"eX c #F9F6BA",
"rX c #FCF8BE",
"tX c #91C2D7",
"yX c #9BCED9",
"uX c #92D5E6",
"iX c #98D1E6",
"pX c #94D7E8",
"aX c #AFD3E7",
"sX c #ADDCE7",
"dX c #ADDCE8",
"fX c #B0D4E8",
"gX c #A9E1EF",
"hX c #CACAC7",
"jX c #C4C7CB",
"kX c #C6C9CC",
"lX c #CBCBC8",
"zX c #CED5DD",
"xX c #DCD7D2",
"cX c #FDFCC4",
"vX c #FDFCCC",
"bX c #D7D6E5",
"nX c #C3E7EF",
"mX c #DFEBED",
"MX c #CBEDF3",
"NX c #CDE6FB",
"BX c #DFE8F5",
"VX c #D9EBFC",
"CX c #E2EAEF",
"ZX c #F1EAE8",
"AX c #E4EDF5",
"SX c #EAF8FF",
"DX c #F1F3F3",
"FX c None",
/* pixels */
"FXFXFXFXFXFXFXFXFXFXFXFXFXFXFXFXFXFXFXFXFXFXFXFXFXFXFXFXFXFXFXFXFXFXFXFXFXFXFXFXFXFXFXFXFXFXFXFX",
"FXFXFXFXFXFXFXFXFXFXFXFXFXFXFXFXFXFXFXFXFXFXFXFXFXFXFXFXFXFXFXFXFXFXFXFXFXFXFXFXFXFXFXFXFXFXFXFX",
"FXFXFXFXFXFXFXFXFXFXFXFXFXFXFXFXFXFXFXFXFXFXFXFXFXFXFXFXFXFXFXFXFXFXFXFXFXFXFXFXFXFXFXFXFXFXFXFX",
"FXFXFXFXFXFXFXFXFXFXFXFXFXFXFXFXFXFXFXFXFXFXFXFXFXFXFXFXFXFXFXFXFXFXFXFXFXFXFXFXFXFXFXFXFXFXFXFX",
"FXFXFXFXFXFXFXFXFXFXFXFXFXFXFXFXFXFXFXFXFXFXFXFXFXFXFXFXFXFXFXFXFXFXFXFXFXFXFXFXFXFXFXFXFXFXFXFX",
"FXFXFXFXFXFXFXFXFXFXFXFXFXFXFXFXFXFXFXFX                FXFXFXFXFXFXFXFXFXFXFXFXFXFXFXFXFXFXFXFX",
"FXFXFXFXFXFXFXFXFXFXFXFXFXFXFXFXFX      X & : 6 6 : & . o     FXFXFXFXFXFXFXFXFXFXFXFXFXFXFXFXFX",
"FXFXFXFXFXFXFXFXFXFXFXFXFXFX      = y P ..4.e.p.p.e.4...P y =       FXFXFXFXFXFXFXFXFXFXFXFXFXFX",
"FXFXFXFXFXFXFXFXFXFXFXFXFX    q I 4.z.`.1X9XrXvXvXeX9X1X].z.4.U q .   FXFXFXFXFXFXFXFXFXFXFXFXFX",
"FXFXFXFXFXFXFXFXFXFXFX    : ( 9.H.<XeXvXvXcXcXcXcXcXcXvXvXeX<XH.0.U :     FXFXFXFXFXFXFXFXFXFXFX",
"FXFXFXFXFXFXFXFXFXFX  . z 5.s..XqXwX0X8X8X8X0X0X8X8X0X8X8X0XwX9X.Xp.5.z .   FXFXFXFXFXFXFXFXFXFX",
"FXFXFXFXFXFXFXFXFX  X K 9.B.4X6X5X5X5X5X5X5X5X5X5X5X5X5X5X5X5X5X6X4XB.9.K X   FXFXFXFXFXFXFXFXFX",
"FXFXFXFXFXFXFXFX  X I 9.Q.3X1X2X2X2X2X2X2X2X2X2X2X2X2X2X2X2X2X2XOX1X3X~.9.I X   FXFXFXFXFXFXFXFX",
"FXFXFXFXFXFXFX  . L 9.Q.OXXXoXoXoXoXoXoXoXoXoXoXoXoXoXoXoXoXoXoXoXoXoXOXQ.9.L .   FXFXFXFXFXFXFX",
"FXFXFXFXFXFXFX  v 5.N.}.|.|.|. X X X X X X X X X X X X X X X X X X X|.|.}.N.5.v   FXFXFXFXFXFXFX",
"FXFXFXFXFXFX  7 3.a.'.`.`.].].].].[.].].[.[.[.[.[.[.[.[.[.[.].].].].].].`.'.a.3.7   FXFXFXFXFXFX",
"FXFXFXFXFX  . / 7.!./.(.).).).)._._._._._._._._._._._._._._._._.).).).)././.!.5.) .   FXFXFXFXFX",
"FXFXFXFXFX  w 3.t.K.K.K.K.I.I.I.U.U.U.U.U.U.U.U.U.U.U.U.U.U.U.U.U.I.I.I.I.K.^.t.3.w   FXFXFXFXFX",
"FXFXFXFXFX  T 3.m.H.J.J.J.L.J.P.L.L.L.L.P.P.P.P.P.P.P.P.L.P.L.L.L.J.L.J.J.J.H.m.3.T   FXFXFXFXFX",
"FXFXFXFX  - &.6.M.n.Z.Z.A.A.F.F.F.F.F.G.D.w.-.F.F.-.u.D.G.F.F.F.F.F.F.A.A.Z.Z.M.6.&.-   FXFXFXFX",
"FXFXFXFX  r =.r.n.V.V.V.C.C.C.x.C.S.D.p.>.G n c.c.n G >.p.D.S.C.C.C.C.C.V.V.V.n.r.3.r   FXFXFXFX",
"FXFXFXFX  M =.r.s.s.s.z.z.z.z.c.c.p.~ 5 %XtXm l.l.m tX%X5 R p.v.c.x.z.x.z.z.s.s.r.=.M   FXFXFXFX",
"FXFXFXFX  Y =.8.u.p.p.k.z.z.l.w.Y 3     #XiX;.h.h.;.iX$X    3 N u.l.c.z.k.p.k.p.8.=.T   FXFXFXFX",
"FXFXFXFX. _ =.7.u.w.w.g.0.7.C 3   > ;X, =XaX:.h.h.:.fX=X, # < s 3 C 3.0.g.e.w.u.8.=._ . FXFXFXFX",
"FXFXFXFXX _ *.7.w.e.e.3.<.:X+Xo . H ZXa uXkX1.h.h.1.7XuXa p >XxXo +X:X<.7.e.w.w.7.=._ X FXFXFXFX",
"FXFXFXFX. Q *.=.7.=.A k zXSX-X&Xi a @XyXNXW.d.g.g.d.,XNXyX*Xa u &X-XSXzXl A =.5.3.*.Q . FXFXFXFX",
"FXFXFXFX  C *.*.+. .j 8 Y.mXDXnXgXdXMXVX7Xy.d.d.d.d.y.7XVXMXsXgXnXDXmXY.8 j  .+.&.*.C   FXFXFXFX",
"FXFXFXFX  c #.&.#.*.=.B d F hXCXAXAXbX,Xi.d.0.9.9.0.d.i.,XbXBXmXmXlXF d B =.*.*.&.#.c   FXFXFXFX",
"FXFXFXFX  9 +.@.=.3.3.0.$.B m T.E.R.b.d.0.9.9.=.=.9.9.d.d.b.R.E.T.m B $.9.5.3.=.@.+.9   FXFXFXFX",
"FXFXFXFX  $ { O.*.=.3.5.d.f.f.0.0.f.f.0.9.9.3.7.7.3.5.9.9.f.f.d.0.f.j.d.5.3.=.*.@.{ $   FXFXFXFX",
"FXFXFXFXFX  b +.@.*.=.=.3.5.9.0.9.5.3.5.5.3.,.{.{.,.5.5.5.5.5.0.0.9.5.3.3.=.=.@.#.b   FXFXFXFXFX",
"FXFXFXFXFX  ; } O.#.=.=.=.3.=.3.3.3.5.5.5.5.@ J J @ 5.3.5.5.3.3.=.3.3.=.=.=.#.O.} ;   FXFXFXFXFX",
"FXFXFXFXFXFX  h +.O.#.=.=.=.=.3.=.3.3.3.3.3.X.2.2.X.5.3.3.3.3.3.3.=.=.=.=.#.O.+.h   FXFXFXFXFXFX",
"FXFXFXFXFXFX  + S  .O.#.*.*.=.=.=.=.=.3.=.3.3.3.3.3.=.3.=.=.=.=.=.=.=.*.#.#.| W +   FXFXFXFXFXFX",
"FXFXFXFXFXFXFX  ; ] | O.#.*.*.*.=.=.=.=.=.3.=.=.=.=.3.=.=.=.=.=.=.*.*.#.O.| ] ;   FXFXFXFXFXFXFX",
"FXFXFXFXFXFXFXFX  4 ]  .| #.#.*.*.*.*.*.=.o.! ' ' ! o.=.=.*.*.*.*.*.#.| | [ 4   FXFXFXFXFXFXFXFX",
"FXFXFXFXFXFXFXFXFX  2 ` } | +.#.#.*.*.=.5.%.%.*.=.%.%.5.=.#.*.#.+.+.| } ` 3   FXFXFXFXFXFXFXFXFX",
"FXFXFXFXFXFXFXFXFXFX  $ V } | | +.+.+.#.#.*.*.*.*.*.*.#.#.#.+.+.| | } V $   FXFXFXFXFXFXFXFXFXFX",
"FXFXFXFXFXFXFXFXFXFXFX  . 0 D } } | | O.+.+.+.+.+.+.+.+.O. .| } } D 0     FXFXFXFXFXFXFXFXFXFXFX",
"FXFXFXFXFXFXFXFXFXFXFXFX    + e Z [ } } } | | | | } |  .} } [ Z e +   . FXFXFXFXFXFXFXFXFXFXFXFX",
"FXFXFXFXFXFXFXFXFXFXFXFXFXFX    . 2 f n S ' [ [ [ [ ' S n f 2 .     FXFXFXFXFXFXFXFXFXFXFXFXFXFX",
"FXFXFXFXFXFXFXFXFXFXFXFXFXFXFXFX        O % * 2 2 * % O         FXFXFXFXFXFXFXFXFXFXFXFXFXFXFXFX",
"FXFXFXFXFXFXFXFXFXFXFXFXFXFXFXFXFXFXFXFX                FXFXFXFXFXFXFXFXFXFXFXFXFXFXFXFXFXFXFXFX",
"FXFXFXFXFXFXFXFXFXFXFXFXFXFXFXFXFXFXFXFXFXFXFXFXFXFXFXFXFXFXFXFXFXFXFXFXFXFXFXFXFXFXFXFXFXFXFXFX",
"FXFXFXFXFXFXFXFXFXFXFXFXFXFXFXFXFXFXFXFXFXFXFXFXFXFXFXFXFXFXFXFXFXFXFXFXFXFXFXFXFXFXFXFXFXFXFXFX",
"FXFXFXFXFXFXFXFXFXFXFXFXFXFXFXFXFXFXFXFXFXFXFXFXFXFXFXFXFXFXFXFXFXFXFXFXFXFXFXFXFXFXFXFXFXFXFXFX",
"FXFXFXFXFXFXFXFXFXFXFXFXFXFXFXFXFXFXFXFXFXFXFXFXFXFXFXFXFXFXFXFXFXFXFXFXFXFXFXFXFXFXFXFXFXFXFXFX",
"FXFXFXFXFXFXFXFXFXFXFXFXFXFXFXFXFXFXFXFXFXFXFXFXFXFXFXFXFXFXFXFXFXFXFXFXFXFXFXFXFXFXFXFXFXFXFXFX"
};
