/* XPM */
static char *_c878a74914f4f4afb41971f48afc032[] = {
/* columns rows colors chars-per-pixel */
"24 46 56 1 ",
"  c black",
". c #060000",
"X c #070000",
"o c #0D0000",
"O c #120000",
"+ c #150000",
"@ c #180000",
"# c #1D0000",
"$ c #210000",
"% c #270000",
"& c #2B0000",
"* c #2D0000",
"= c #330000",
"- c #360000",
"; c #3A0000",
": c #3C0000",
"> c #420000",
", c #440000",
"< c #4A0000",
"1 c #4D0000",
"2 c #530000",
"3 c #590000",
"4 c #5D0000",
"5 c #610000",
"6 c #650000",
"7 c #6A0000",
"8 c #6C0000",
"9 c #730000",
"0 c #740000",
"q c #7A0000",
"w c #7D0000",
"e c #800000",
"r c #870000",
"t c #8A0000",
"y c #8E0000",
"u c #910000",
"i c #970000",
"p c #990000",
"a c #A70000",
"s c #AF0000",
"d c #B30000",
"f c #B70000",
"g c #B90000",
"h c #BD0000",
"j c #C40000",
"k c #C80000",
"l c #CC0000",
"z c #D30000",
"x c #D70000",
"c c #E10000",
"v c #E60000",
"b c #EA0000",
"n c #F00000",
"m c #F40000",
"M c #FA0000",
"N c red",
/* pixels */
"$tNNNNNNNNNNNNNNNNNNNMt$",
"s=uNNNNNNNNNNNNNNNNNNi=s",
"Ng*uMNNNNNNNNNNNNNNMi*fN",
"NNf&yMNNNNNNNNNNNNNi&fNN",
"NNNf&tMNNNNNNNNNNMi&fNNN",
"NNNNd%rMNNNNNNNNNu&dNNNN",
"NNNNNd%6ereeeeee7&dNNNNN",
"NNNNNN9          9NNNNNN",
"NNNNNNw          wNNNNNN",
"NNNNNNw          qNNNNNN",
"NNNNNNe          wNNNNNN",
"NNNNNNw          wNNNNNN",
"NNNNNNw          eNNNNNN",
"NNNNNNw          wNNNNNN",
"NNNNNNw          wNNNNNN",
"NNNNNNw          wNNNNNN",
"NNNNNn2          2nNNNNN",
"NNNNn7.          .8nNNNN",
"NNNn9  O@@@@@@@@O  9nNNN",
"NNm0 O7kxzxxxzxzl9+ 9mNN",
"Nm0o1hNNNNNNNNNNNNj2o9mN",
"nw;anNNNNNNNNNNNNNNma:wn",
"qwvNNNNNNNNNNNNNNNNNNbeq",
"*<gMNNNNNNNNNNNNNNNNMg20",
"4*O5zNNNNNNNNNNNNNNz6@qm",
"54* #wcNNNNNNNNNNvr#.qmN",
"554*  *tppppppppt- .qmNN",
"5454*             .qmNNN",
"55554*.          .0mNNNN",
"454554$          3mNNNNN",
"554555=          eNNNNNN",
"455555*          wNNNNNN",
"545545=          eNNNNNN",
"554555*          wNNNNNN",
"555555*          wNNNNNN",
"454545=          wNNNNNN",
"555455*          wNNNNNN",
"455555=          eNNNNNN",
"545455&          8MNNNNN",
"55555:O6eeeeeewe7%aNNNNN",
"5555:OtMNNNNNNNNNu%aNNNM",
"545>+yMNNNNNNNNNNMi%sNNN",
"45>+uNNNNNNNNNNNNNMi&dNN",
"5,@uMNNNNNNNNNNNNNNNi&fN",
">#iMNNNNNNNNNNNNNNNNMi=s",
"OyNNNNNNNNNNNNNNNNNNNNt#"
};
