/* XPM */
static char *bd6e848e081d4c00ecd1e71dbb32754c[] = {
/* columns rows colors chars-per-pixel */
"24 46 54 1 ",
"  c black",
". c #040000",
"X c #070000",
"o c #0E0000",
"O c #120000",
"+ c #170000",
"@ c #190000",
"# c #1D0000",
"$ c #210000",
"% c #250000",
"& c #2A0000",
"* c #2F0000",
"= c #300000",
"- c #330000",
"; c #370000",
": c #3C0000",
"> c #410000",
", c #440000",
"< c #4B0000",
"1 c #520000",
"2 c #530000",
"3 c #5B0000",
"4 c #5D0000",
"5 c #610000",
"6 c #650000",
"7 c #690000",
"8 c #6B0000",
"9 c #720000",
"0 c #740000",
"q c #780000",
"w c #7F0000",
"e c #810000",
"r c #8B0000",
"t c #8C0000",
"y c #930000",
"u c #970000",
"i c #990000",
"p c #9A0000",
"a c #A30000",
"s c #A70000",
"d c #AE0000",
"f c #B20000",
"g c #B50000",
"h c #BB0000",
"j c #C40000",
"k c #CC0000",
"l c #D30000",
"z c #D70000",
"x c #E60000",
"c c #EA0000",
"v c #F00000",
"b c #F40000",
"n c #FB0000",
"m c #FC0000",
/* pixels */
"Ormmmmmmmmmmmmmmmmmmmmt$",
">#unmmmmmmmmmmmmmmmmnu=f",
"5,@ymmmmmmmmmmmmmmmmu*hm",
"55,@ymmmmmmmmmmmmmmi*hmm",
"455>+tnmmmmmmmmmmmu&gmmm",
"5555>+rnmmmmmmmmmu*gmmmm",
"55555>+6eeeeeeee8*fmmmmm",
"544555&          0mmmmmm",
"555555*          wmmmmmm",
"545445*          emmmmmm",
"455555*          wmmmmmm",
"555455*          wmmmmmm",
"554555*          wmmmmmm",
"545555*          wmmmmmm",
"555545=          emmmmmm",
"545455=          emmmmmm",
"454554#          1vmmmmm",
"55554&           .8vmmmm",
"5554&  O@+@@@@@@O .9bmmm",
"454& O8kllzzzlzzk9+ 0bmm",
"54&.2hmmmmmmmmmmmmj1o0vm",
"4=;abmmmmmmmmmmmmmmns:eb",
";qcmmmmmmmmmmmmmmmmmmceq",
"*<hmmmmmmmmmmmmmmmmmmh10",
"4*O5kmmmmmmmmmmmmmml6+qm",
"54* #exmmmmmmmmmmxr$.ebm",
"454*  *eiiiipiipt; .qbmm",
"5554=.            .qnmmm",
"45454*           .0bmmmm",
"555554%          3bmmmmm",
"555555=          emmmmmm",
"544555*          emmmmmm",
"555555*          wmmmmmm",
"545455*          wmmmmmm",
"455545*          wmmmmmm",
"555455*          emmmmmm",
"554555*          wmmmmmm",
"545555=          wmmmmmm",
"555545&          9mmmmmm",
"54545:+6eeeeeeee8*ammmmm",
"5555:+rmmmmmmmmmmu%dmmmm",
"545>+tnmmmmmmmmmmmu%fmmm",
"45>+tmmmmmmmmmmmmmmi&fmm",
"5,+ummmmmmmmmmmmmmmmi*gm",
">#ummmmmmmmmmmmmmmmmmi=d",
"Otmmmmmmmmmmmmmmmmmmmmt$"
};
