/* XPM */
static char *_fe7401fe4d0494bb3636d54d0670853[] = {
/* columns rows colors chars-per-pixel */
"24 46 42 1 ",
"  c #010000",
". c #070000",
"X c #090000",
"o c #0C0000",
"O c #130000",
"+ c #150000",
"@ c #190000",
"# c #1E0000",
"$ c #210000",
"% c #270000",
"& c #2B0000",
"* c #2E0000",
"= c #330000",
"- c #340000",
"; c #380000",
": c #3E0000",
"> c #420000",
", c #450000",
"< c #4A0000",
"1 c #4D0000",
"2 c #520000",
"3 c #550000",
"4 c #580000",
"5 c #5F0000",
"6 c #610000",
"7 c #620000",
"8 c #6B0000",
"9 c #6F0000",
"0 c #720000",
"q c #750000",
"w c #7B0000",
"e c #7C0000",
"r c #7F0000",
"t c #A80000",
"y c #AE0000",
"u c #B30000",
"i c #B40000",
"p c #B90000",
"a c #F10000",
"s c #F50000",
"d c #FE0000",
"f c red",
/* pixels */
"o-66665656565656565665=@",
">O-665656565656565656;&y",
"6,O;5556565656565656-%pf",
"66,o-56565656565666-%iff",
"656,O-666656656656-%ifff",
"5656>o=5666666666-$iffff",
"65656>o%=**==*=*&$ufffff",
"565666&          0ffffff",
"656566*          effffff",
"565656*          effffff",
"656566*          effffff",
"565666*          effffff",
"656566*          effffff",
"565656*          effffff",
"656566=          effffff",
"565656*          effffff",
"566664#          3afffff",
"65665&            8affff",
"5654&  .XXXXXX.X.  0sfff",
"565& .%1122212221&X 0aff",
"65&.#<666666666665<#Xqsf",
"4=+:3665665665565655:@es",
"*=36566565655666656664-0",
"&#,566565656666656565,$0",
"5*.%1565666666666662%ows",
"64* X=367766666663=X.wsf",
"665*  O=;;;;;;>--+ .wsff",
"6555*             .qsfff",
"56565&           .qsffff",
"656655$          4sfffff",
"566566=          effffff",
"655656*          effffff",
"565666*          effffff",
"656556*          effffff",
"565666*          effffff",
"656566*          effffff",
"565656*          wffffff",
"656566*          wffffff",
"565656&          9ffffff",
"65656:o%*==*==*=%@tfffff",
"6566>o=5666666666-#yffff",
"566,o=566665565656-#yfff",
"66>o-66556566565656-$uff",
"6,O-5656656556565666-%if",
">O;565656565656565656;%y",
"X-66565656565656565656=@"
};
