/* XPM */
static char *_e1e81916aed4c90da4e9a134a6eaa1e[] = {
/* columns rows colors chars-per-pixel */
"24 24 56 1 ",
"  c #797979",
". c #7C7C7C",
"X c red",
"o c #FF0A0A",
"O c #FE0C0C",
"+ c #FE1212",
"@ c #FE1919",
"# c #FD1E1E",
"$ c #FC2727",
"% c #FB2A2A",
"& c #FB2E2E",
"* c #FB3131",
"= c #FB3636",
"- c #F93B3B",
"; c #F93C3C",
": c #FA3C3C",
"> c #F74747",
", c #F94040",
"< c #F84242",
"1 c #F74949",
"2 c #F64E4E",
"3 c #F65151",
"4 c #F55454",
"5 c #ED6F6F",
"6 c #EC7272",
"7 c #EB7575",
"8 c #E97878",
"9 c #808080",
"0 c gray59",
"q c #A5A5A5",
"w c gray66",
"e c gray",
"r c #DC9595",
"t c #D79F9F",
"y c #DA9999",
"u c #E68282",
"i c #CDADAD",
"p c #D2A5A5",
"a c #D4A4A4",
"s c #D1A8A8",
"d c #C7B6B6",
"f c #CBB0B0",
"g c #C9B3B3",
"h c #C8B5B5",
"j c #C3BBBB",
"k c #C6B8B8",
"l c #C0BFBF",
"z c #BCC1C1",
"x c #BDC1C1",
"c c #BBC5C5",
"v c #BDC4C4",
"b c #B8C8C8",
"n c #C3C3C3",
"m c #C4C3C3",
"M c #C3C4C4",
"N c gray78",
/* pixels */
"9.                      ",
".0wqqqqwqqqqqqqwqqqwqqq ",
" wNnMnnNNmmmmmNmMmmmNNn ",
" qneexexxxxxxxxxxxeeeee ",
" qneneddkhhhddddkhlveln ",
" qnlx8#:-=--=--=*=2rxll ",
" qNex3XXXXXXXXXXXXXXivl ",
" wnex7-21121112&X+@Xpvl ",
" qmellljljlklkxaXXOXscl ",
" qnllxllnxvvxxbh+X@Xpcl ",
" qnellllelhkhhktXOX*fxM ",
" wmelnllca$::::@XX,fzxe ",
" qNeelnlxaXXXXXX#X5clll ",
" qNenlelcp%,,:,#XX1dxen ",
" qnellezenkkkkltXOX,dxl ",
" qneMxxnzevcvxbh+X@Xpcl ",
" qnenjkjjkkkldeaXXOXscl ",
" qnlx6*>,>>,,,>%X+@Xpcl ",
" qNex4XXXXXXXXXXXXXXixl ",
" wnexu$,:::::::;-=3yxll ",
" qnexlkddkdkkkdkkklvnee ",
" qnnnexxxxxxxxxxxxxlenn ",
" qnenlneeelenleenleeeee ",
"                        "
};
